M48
; DRILL file KiCad 10.0.6 date 2026-09-07T08:32:18
; FORMAT={-:-/ absolute / metric / decimal}
; #@! TF.CreationDate,2026-09-07T08:32:18-04:00
; #@! TF.GenerationSoftware,Kicad,Pcbnew,10.0.6
; #@! TF.FileFunction,MixedPlating,1,2
FMAT,2
METRIC
; #@! TA.AperFunction,Plated,PTH,ViaDrill
T1C0.300
; #@! TA.AperFunction,Plated,PTH,ComponentDrill
T2C0.600
; #@! TA.AperFunction,Plated,PTH,ComponentDrill
T3C0.750
; #@! TA.AperFunction,Plated,PTH,ComponentDrill
T4C0.800
; #@! TA.AperFunction,Plated,PTH,ComponentDrill
T5C1.000
; #@! TA.AperFunction,Plated,PTH,ComponentDrill
T6C1.010
; #@! TA.AperFunction,Plated,PTH,ComponentDrill
T7C1.300
; #@! TA.AperFunction,Plated,PTH,ComponentDrill
T8C2.690
; #@! TA.AperFunction,Plated,PTH,ComponentDrill
T9C2.820
%
G90
G05
T1
X23.737Y-40.9
X25.65Y-39.15
X35.3Y-39.15
X45.91Y-57.17
X46.7Y-20.4
X46.7Y-23.9
X52.3Y-24.0
X52.4Y-20.9
T3
X42.46Y-46.0
X43.73Y-46.0
X45.0Y-46.0
T4
X21.79Y-34.7
X29.41Y-34.7
X35.0Y-35.0
X38.29Y-56.0
X40.38Y-70.0
X41.38Y-39.0
X42.62Y-35.0
X45.91Y-56.0
X48.0Y-70.0
X49.0Y-39.0
X50.675Y-55.925
X58.295Y-55.925
T5
X21.832Y-24.7
X25.532Y-67.1
X26.832Y-24.7
X30.532Y-67.1
X38.0Y-74.0
X40.54Y-74.0
X43.08Y-74.0
X52.0Y-43.1
X58.5Y-60.0
X62.0Y-59.0
X65.9Y-28.35
X70.0Y-22.0
X70.0Y-24.54
X70.0Y-27.08
X70.0Y-29.62
X70.0Y-32.16
T6
X35.532Y-24.9
X40.632Y-26.1
T7
X23.12Y-45.0
X38.36Y-45.0
T8
X65.35Y-65.084
X65.35Y-72.584
X66.35Y-38.484
X66.35Y-45.984
T9
X69.05Y-68.834
X70.05Y-42.234
T2
X45.08Y-21.9G85X45.08Y-21.3
G05
X45.08Y-25.7G85X45.08Y-25.1
G05
X53.72Y-21.9G85X53.72Y-21.3
G05
X53.72Y-25.7G85X53.72Y-25.1
G05
M30
