%TF.GenerationSoftware,KiCad,Pcbnew,10.0.6*%
%TF.CreationDate,2026-09-07T08:32:18-04:00*%
%TF.ProjectId,nes_power_video,6e65735f-706f-4776-9572-5f766964656f,rev?*%
%TF.SameCoordinates,Original*%
%TF.FileFunction,Soldermask,Bot*%
%TF.FilePolarity,Negative*%
%FSLAX46Y46*%
G04 Gerber Fmt 4.6, Leading zero omitted, Abs format (unit mm)*
G04 Created by KiCad (PCBNEW 10.0.6) date 2026-09-07 08:32:18*
%MOMM*%
%LPD*%
G01*
G04 APERTURE LIST*
G04 Aperture macros list*
%AMRoundRect*
0 Rectangle with rounded corners*
0 $1 Rounding radius*
0 $2 $3 $4 $5 $6 $7 $8 $9 X,Y pos of 4 corners*
0 Add a 4 corners polygon primitive as box body*
4,1,4,$2,$3,$4,$5,$6,$7,$8,$9,$2,$3,0*
0 Add four circle primitives for the rounded corners*
1,1,$1+$1,$2,$3*
1,1,$1+$1,$4,$5*
1,1,$1+$1,$6,$7*
1,1,$1+$1,$8,$9*
0 Add four rect primitives between the rounded corners*
20,1,$1+$1,$2,$3,$4,$5,0*
20,1,$1+$1,$4,$5,$6,$7,0*
20,1,$1+$1,$6,$7,$8,$9,0*
20,1,$1+$1,$8,$9,$2,$3,0*%
G04 Aperture macros list end*
%ADD10R,1.700000X1.700000*%
%ADD11C,1.700000*%
%ADD12C,2.010000*%
%ADD13O,1.100000X1.700000*%
%ADD14C,2.000000*%
%ADD15C,1.600000*%
%ADD16C,4.230000*%
%ADD17C,4.035000*%
%ADD18R,1.050000X1.500000*%
%ADD19O,1.050000X1.500000*%
%ADD20RoundRect,0.250000X-0.750000X-0.750000X0.750000X-0.750000X0.750000X0.750000X-0.750000X0.750000X0*%
%ADD21RoundRect,0.250000X-1.050000X-1.050000X1.050000X-1.050000X1.050000X1.050000X-1.050000X1.050000X0*%
%ADD22C,2.600000*%
G04 APERTURE END LIST*
D10*
%TO.C,J4*%
X70000000Y-22000000D03*
D11*
X70000000Y-24540000D03*
X70000000Y-27080000D03*
X70000000Y-29620000D03*
X70000000Y-32160000D03*
%TD*%
D12*
%TO.C,F1*%
X35532300Y-24900000D03*
X40632300Y-26100000D03*
%TD*%
D13*
%TO.C,USB-C1*%
X53720000Y-25400000D03*
X53720000Y-21600000D03*
X45080000Y-25400000D03*
X45080000Y-21600000D03*
%TD*%
D14*
%TO.C,TP1*%
X62000000Y-59000000D03*
%TD*%
D15*
%TO.C,R1*%
X38290000Y-56000000D03*
X45910000Y-56000000D03*
%TD*%
D16*
%TO.C,J3*%
X69050000Y-68834000D03*
D17*
X65350000Y-72584000D03*
X65350000Y-65084000D03*
%TD*%
D14*
%TO.C,TP2*%
X58500000Y-60000000D03*
%TD*%
D15*
%TO.C,R7*%
X48000000Y-70000000D03*
X40380000Y-70000000D03*
%TD*%
D18*
%TO.C,Q1*%
X42460000Y-46000000D03*
D19*
X43730000Y-46000000D03*
X45000000Y-46000000D03*
%TD*%
D15*
%TO.C,R5*%
X50675000Y-55925000D03*
X58295000Y-55925000D03*
%TD*%
%TO.C,R2*%
X49000000Y-39000000D03*
X41380000Y-39000000D03*
%TD*%
D20*
%TO.C,C2*%
X25532300Y-67100000D03*
D14*
X30532300Y-67100000D03*
%TD*%
D15*
%TO.C,R3*%
X21790000Y-34700000D03*
X29410000Y-34700000D03*
%TD*%
D16*
%TO.C,J2*%
X70050000Y-42234000D03*
D17*
X66350000Y-45984000D03*
X66350000Y-38484000D03*
%TD*%
D20*
%TO.C,C1*%
X21832300Y-24700000D03*
D14*
X26832300Y-24700000D03*
%TD*%
%TO.C,TP3*%
X52000000Y-43100000D03*
%TD*%
%TO.C,TP4*%
X65900000Y-28350000D03*
%TD*%
D21*
%TO.C,D1*%
X23120000Y-45000000D03*
D22*
X38360000Y-45000000D03*
%TD*%
D15*
%TO.C,R4*%
X35000000Y-35000000D03*
X42620000Y-35000000D03*
%TD*%
D10*
%TO.C,J5*%
X38000000Y-74000000D03*
D11*
X40540000Y-74000000D03*
X43080000Y-74000000D03*
%TD*%
M02*
