%TF.GenerationSoftware,KiCad,Pcbnew,10.0.6*%
%TF.CreationDate,2026-09-07T08:32:18-04:00*%
%TF.ProjectId,nes_power_video,6e65735f-706f-4776-9572-5f766964656f,rev?*%
%TF.SameCoordinates,Original*%
%TF.FileFunction,Copper,L2,Bot*%
%TF.FilePolarity,Positive*%
%FSLAX46Y46*%
G04 Gerber Fmt 4.6, Leading zero omitted, Abs format (unit mm)*
G04 Created by KiCad (PCBNEW 10.0.6) date 2026-09-07 08:32:18*
%MOMM*%
%LPD*%
G01*
G04 APERTURE LIST*
G04 Aperture macros list*
%AMRoundRect*
0 Rectangle with rounded corners*
0 $1 Rounding radius*
0 $2 $3 $4 $5 $6 $7 $8 $9 X,Y pos of 4 corners*
0 Add a 4 corners polygon primitive as box body*
4,1,4,$2,$3,$4,$5,$6,$7,$8,$9,$2,$3,0*
0 Add four circle primitives for the rounded corners*
1,1,$1+$1,$2,$3*
1,1,$1+$1,$4,$5*
1,1,$1+$1,$6,$7*
1,1,$1+$1,$8,$9*
0 Add four rect primitives between the rounded corners*
20,1,$1+$1,$2,$3,$4,$5,0*
20,1,$1+$1,$4,$5,$6,$7,0*
20,1,$1+$1,$6,$7,$8,$9,0*
20,1,$1+$1,$8,$9,$2,$3,0*%
G04 Aperture macros list end*
%TA.AperFunction,ComponentPad*%
%ADD10R,1.700000X1.700000*%
%TD*%
%TA.AperFunction,ComponentPad*%
%ADD11C,1.700000*%
%TD*%
%TA.AperFunction,ComponentPad*%
%ADD12C,2.010000*%
%TD*%
%TA.AperFunction,ComponentPad*%
%ADD13O,1.100000X1.700000*%
%TD*%
%TA.AperFunction,ComponentPad*%
%ADD14C,2.000000*%
%TD*%
%TA.AperFunction,ComponentPad*%
%ADD15C,1.600000*%
%TD*%
%TA.AperFunction,ComponentPad*%
%ADD16C,4.230000*%
%TD*%
%TA.AperFunction,ComponentPad*%
%ADD17C,4.035000*%
%TD*%
%TA.AperFunction,ComponentPad*%
%ADD18R,1.050000X1.500000*%
%TD*%
%TA.AperFunction,ComponentPad*%
%ADD19O,1.050000X1.500000*%
%TD*%
%TA.AperFunction,ComponentPad*%
%ADD20RoundRect,0.250000X-0.750000X-0.750000X0.750000X-0.750000X0.750000X0.750000X-0.750000X0.750000X0*%
%TD*%
%TA.AperFunction,ComponentPad*%
%ADD21RoundRect,0.250000X-1.050000X-1.050000X1.050000X-1.050000X1.050000X1.050000X-1.050000X1.050000X0*%
%TD*%
%TA.AperFunction,ComponentPad*%
%ADD22C,2.600000*%
%TD*%
%TA.AperFunction,ViaPad*%
%ADD23C,0.600000*%
%TD*%
%TA.AperFunction,Conductor*%
%ADD24C,0.250000*%
%TD*%
%TA.AperFunction,Conductor*%
%ADD25C,0.200000*%
%TD*%
%TA.AperFunction,Conductor*%
%ADD26C,0.400000*%
%TD*%
%TA.AperFunction,Conductor*%
%ADD27C,0.500000*%
%TD*%
G04 APERTURE END LIST*
D10*
%TO.P,J4,1,Pin_1_1*%
%TO.N,Net-(J4-Pin_1)*%
X70000000Y-22000000D03*
D11*
%TO.P,J4,2,Pin_2_2*%
%TO.N,/AUDIO_OUT*%
X70000000Y-24540000D03*
%TO.P,J4,3,Pin_3_3*%
%TO.N,/5V*%
X70000000Y-27080000D03*
%TO.P,J4,4,Pin_4_4*%
%TO.N,unconnected-(J4-Pin_4-Pad4)*%
X70000000Y-29620000D03*
%TO.P,J4,5,Pin_5_5*%
%TO.N,GND*%
X70000000Y-32160000D03*
%TD*%
D12*
%TO.P,F1,1*%
%TO.N,/fused_5v*%
X35532300Y-24900000D03*
%TO.P,F1,2*%
%TO.N,/raw_5v*%
X40632300Y-26100000D03*
%TD*%
D13*
%TO.P,USB-C1,SH,SHIELD_SH*%
%TO.N,GND*%
X53720000Y-25400000D03*
X53720000Y-21600000D03*
X45080000Y-25400000D03*
X45080000Y-21600000D03*
%TD*%
D14*
%TO.P,TP1,1*%
%TO.N,/VIDEO_OUT*%
X62000000Y-59000000D03*
%TD*%
D15*
%TO.P,R1,1*%
%TO.N,Net-(Q1-E)*%
X38290000Y-56000000D03*
%TO.P,R1,2*%
%TO.N,/5V*%
X45910000Y-56000000D03*
%TD*%
D16*
%TO.P,J3,1,SLEEVE_1*%
%TO.N,GND*%
X69050000Y-68834000D03*
D17*
%TO.P,J3,2,TIP_2*%
%TO.N,/VIDEO_OUT*%
X65350000Y-72584000D03*
%TO.P,J3,3,SHUNT_3*%
%TO.N,unconnected-(J3-SHUNT-Pad3)*%
X65350000Y-65084000D03*
%TD*%
D14*
%TO.P,TP2,1*%
%TO.N,GND*%
X58500000Y-60000000D03*
%TD*%
D15*
%TO.P,R7,1*%
%TO.N,/VIDEO_BUF*%
X48000000Y-70000000D03*
%TO.P,R7,2*%
%TO.N,/RGB_VIDEO*%
X40380000Y-70000000D03*
%TD*%
D18*
%TO.P,Q1,1,E_1*%
%TO.N,Net-(Q1-E)*%
X42460000Y-46000000D03*
D19*
%TO.P,Q1,2,C_2*%
%TO.N,GND*%
X43730000Y-46000000D03*
%TO.P,Q1,3,B_3*%
%TO.N,Net-(Q1-B)*%
X45000000Y-46000000D03*
%TD*%
D15*
%TO.P,R5,1*%
%TO.N,/VIDEO_BUF*%
X50675000Y-55925000D03*
%TO.P,R5,2*%
%TO.N,/VIDEO_OUT*%
X58295000Y-55925000D03*
%TD*%
%TO.P,R2,1*%
%TO.N,Net-(J4-Pin_1)*%
X49000000Y-39000000D03*
%TO.P,R2,2*%
%TO.N,Net-(Q1-B)*%
X41380000Y-39000000D03*
%TD*%
D20*
%TO.P,C2,1*%
%TO.N,Net-(Q1-E)*%
X25532300Y-67100000D03*
D14*
%TO.P,C2,2*%
%TO.N,/VIDEO_BUF*%
X30532300Y-67100000D03*
%TD*%
D15*
%TO.P,R3,1*%
%TO.N,Net-(USB-C1-CC2)*%
X21790000Y-34700000D03*
%TO.P,R3,2*%
%TO.N,GND*%
X29410000Y-34700000D03*
%TD*%
D16*
%TO.P,J2,1,SLEEVE_1*%
%TO.N,GND*%
X70050000Y-42234000D03*
D17*
%TO.P,J2,2,TIP_2*%
%TO.N,/AUDIO_OUT*%
X66350000Y-45984000D03*
%TO.P,J2,3,SHUNT_3*%
%TO.N,unconnected-(J2-SHUNT-Pad3)*%
X66350000Y-38484000D03*
%TD*%
D20*
%TO.P,C1,1*%
%TO.N,/5V*%
X21832300Y-24700000D03*
D14*
%TO.P,C1,2*%
%TO.N,GND*%
X26832300Y-24700000D03*
%TD*%
%TO.P,TP3,1*%
%TO.N,/5V*%
X52000000Y-43100000D03*
%TD*%
%TO.P,TP4,1*%
%TO.N,/AUDIO_OUT*%
X65900000Y-28350000D03*
%TD*%
D21*
%TO.P,D1,1,A1_1*%
%TO.N,/5V*%
X23120000Y-45000000D03*
D22*
%TO.P,D1,2,A2_2*%
%TO.N,GND*%
X38360000Y-45000000D03*
%TD*%
D15*
%TO.P,R4,1*%
%TO.N,Net-(USB-C1-CC1)*%
X35000000Y-35000000D03*
%TO.P,R4,2*%
%TO.N,GND*%
X42620000Y-35000000D03*
%TD*%
D10*
%TO.P,J5,1*%
%TO.N,/RGB_VIDEO*%
X38000000Y-74000000D03*
D11*
%TO.P,J5,2*%
%TO.N,GND*%
X40540000Y-74000000D03*
%TO.P,J5,3*%
%TO.N,/5V*%
X43080000Y-74000000D03*
%TD*%
D23*
%TO.N,/5V*%
X45910000Y-57170000D03*
%TO.N,GND*%
X46700000Y-23900000D03*
X46700000Y-20400000D03*
X25650000Y-39150000D03*
X35300000Y-39150000D03*
X23737500Y-40900000D03*
X52400000Y-20900000D03*
X52300000Y-24000000D03*
%TD*%
%TO.N,Net-(J4-Pin_1)*%
D24*
X49000000Y-39000000D02*
X66000000Y-22000000D01*
X66000000Y-22000000D02*
X70000000Y-22000000D01*
%TO.N,/AUDIO_OUT*%
D25*
X73583000Y-42116326D02*
X69715326Y-45984000D01*
X72450000Y-37050000D02*
X68850000Y-33450000D01*
X73583000Y-38317000D02*
X72450000Y-37184000D01*
X72450000Y-37184000D02*
X72450000Y-37050000D01*
D26*
X65900000Y-28350000D02*
X68850000Y-28350000D01*
D25*
X68850000Y-33450000D02*
X68850000Y-25690000D01*
X68850000Y-25690000D02*
X70000000Y-24540000D01*
X73583000Y-38317000D02*
X73583000Y-42116326D01*
X69715326Y-45984000D02*
X66350000Y-45984000D01*
%TO.N,/5V*%
D27*
X43080000Y-74000000D02*
X43080000Y-60000000D01*
X43080000Y-60000000D02*
X45910000Y-57170000D01*
%TO.N,Net-(Q1-B)*%
D24*
X45000000Y-42620000D02*
X41380000Y-39000000D01*
X45000000Y-46000000D02*
X45000000Y-42620000D01*
%TD*%
%TA.AperFunction,Conductor*%
%TO.N,GND*%
G36*
X77642539Y-18220185D02*
G01*
X77688294Y-18272989D01*
X77699500Y-18324500D01*
X77699500Y-76775500D01*
X77679815Y-76842539D01*
X77627011Y-76888294D01*
X77575500Y-76899500D01*
X18924500Y-76899500D01*
X18857461Y-76879815D01*
X18811706Y-76827011D01*
X18800500Y-76775500D01*
X18800500Y-75194660D01*
X39911023Y-75194660D01*
X40021782Y-75251095D01*
X40223870Y-75316757D01*
X40433754Y-75350000D01*
X40646246Y-75350000D01*
X40856127Y-75316757D01*
X40856130Y-75316757D01*
X41058222Y-75251092D01*
X41168975Y-75194660D01*
X40540001Y-74565686D01*
X40540000Y-74565686D01*
X39911023Y-75194660D01*
X18800500Y-75194660D01*
X18800500Y-73125321D01*
X36899500Y-73125321D01*
X36899500Y-74874678D01*
X36914032Y-74947735D01*
X36914033Y-74947739D01*
X36914034Y-74947740D01*
X36969399Y-75030601D01*
X37052257Y-75085964D01*
X37052260Y-75085966D01*
X37052264Y-75085967D01*
X37125321Y-75100499D01*
X37125324Y-75100500D01*
X37125326Y-75100500D01*
X38874676Y-75100500D01*
X38874677Y-75100499D01*
X38947740Y-75085966D01*
X39030601Y-75030601D01*
X39085966Y-74947740D01*
X39100500Y-74874674D01*
X39100500Y-74664951D01*
X39120185Y-74597912D01*
X39172989Y-74552157D01*
X39242147Y-74542213D01*
X39305703Y-74571238D01*
X39334985Y-74608656D01*
X39345338Y-74628975D01*
X39974314Y-74000000D01*
X39908488Y-73934174D01*
X40040000Y-73934174D01*
X40040000Y-74065826D01*
X40074075Y-74192993D01*
X40139901Y-74307007D01*
X40232993Y-74400099D01*
X40347007Y-74465925D01*
X40474174Y-74500000D01*
X40605826Y-74500000D01*
X40732993Y-74465925D01*
X40847007Y-74400099D01*
X40940099Y-74307007D01*
X41005925Y-74192993D01*
X41040000Y-74065826D01*
X41040000Y-73999999D01*
X41105686Y-73999999D01*
X41105686Y-74000001D01*
X41734660Y-74628975D01*
X41791092Y-74518222D01*
X41823239Y-74419287D01*
X41862676Y-74361611D01*
X41927035Y-74334413D01*
X41995881Y-74346328D01*
X42047357Y-74393572D01*
X42059100Y-74419284D01*
X42060127Y-74422446D01*
X42086303Y-74473819D01*
X42138768Y-74576788D01*
X42240586Y-74716928D01*
X42363072Y-74839414D01*
X42503212Y-74941232D01*
X42657555Y-75019873D01*
X42822299Y-75073402D01*
X42993389Y-75100500D01*
X42993390Y-75100500D01*
X43166610Y-75100500D01*
X43166611Y-75100500D01*
X43337701Y-75073402D01*
X43502445Y-75019873D01*
X43656788Y-74941232D01*
X43796928Y-74839414D01*
X43919414Y-74716928D01*
X44021232Y-74576788D01*
X44099873Y-74422445D01*
X44153402Y-74257701D01*
X44180500Y-74086611D01*
X44180500Y-73913389D01*
X44153402Y-73742299D01*
X44099873Y-73577555D01*
X44021232Y-73423212D01*
X43919414Y-73283072D01*
X43796928Y-73160586D01*
X43656788Y-73058768D01*
X43656789Y-73058768D01*
X43656787Y-73058767D01*
X43648199Y-73054391D01*
X43597406Y-73006414D01*
X43580500Y-72943909D01*
X43580500Y-72435353D01*
X63082000Y-72435353D01*
X63082000Y-72732646D01*
X63082001Y-72732662D01*
X63110804Y-72951446D01*
X63120806Y-73027414D01*
X63189309Y-73283070D01*
X63197757Y-73314596D01*
X63311523Y-73589253D01*
X63311531Y-73589270D01*
X63460176Y-73846729D01*
X63460187Y-73846745D01*
X63641167Y-74082603D01*
X63641173Y-74082610D01*
X63851389Y-74292826D01*
X63851396Y-74292832D01*
X63941031Y-74361611D01*
X64087263Y-74473819D01*
X64087270Y-74473823D01*
X64344729Y-74622468D01*
X64344734Y-74622470D01*
X64344737Y-74622472D01*
X64344741Y-74622473D01*
X64344746Y-74622476D01*
X64619403Y-74736242D01*
X64619405Y-74736242D01*
X64619411Y-74736245D01*
X64906586Y-74813194D01*
X65201347Y-74852000D01*
X65201354Y-74852000D01*
X65498646Y-74852000D01*
X65498653Y-74852000D01*
X65793414Y-74813194D01*
X66080589Y-74736245D01*
X66355263Y-74622472D01*
X66612737Y-74473819D01*
X66848605Y-74292831D01*
X67058831Y-74082605D01*
X67239819Y-73846737D01*
X67388472Y-73589263D01*
X67502245Y-73314589D01*
X67579194Y-73027414D01*
X67618000Y-72732653D01*
X67618000Y-72435347D01*
X67579194Y-72140586D01*
X67502245Y-71853411D01*
X67388472Y-71578737D01*
X67388470Y-71578734D01*
X67388468Y-71578729D01*
X67239823Y-71321270D01*
X67239819Y-71321263D01*
X67058831Y-71085395D01*
X67058826Y-71085389D01*
X66848610Y-70875173D01*
X66848603Y-70875167D01*
X66612745Y-70694187D01*
X66612743Y-70694185D01*
X66612737Y-70694181D01*
X66612732Y-70694178D01*
X66612729Y-70694176D01*
X66355270Y-70545531D01*
X66355253Y-70545523D01*
X66080596Y-70431757D01*
X65793410Y-70354805D01*
X65498662Y-70316001D01*
X65498659Y-70316000D01*
X65498653Y-70316000D01*
X65201347Y-70316000D01*
X65201341Y-70316000D01*
X65201337Y-70316001D01*
X64906589Y-70354805D01*
X64619403Y-70431757D01*
X64344746Y-70545523D01*
X64344729Y-70545531D01*
X64087270Y-70694176D01*
X64087254Y-70694187D01*
X63851396Y-70875167D01*
X63851389Y-70875173D01*
X63641173Y-71085389D01*
X63641167Y-71085396D01*
X63460187Y-71321254D01*
X63460176Y-71321270D01*
X63311531Y-71578729D01*
X63311523Y-71578746D01*
X63197757Y-71853403D01*
X63120805Y-72140589D01*
X63082001Y-72435337D01*
X63082000Y-72435353D01*
X43580500Y-72435353D01*
X43580500Y-69896530D01*
X46949500Y-69896530D01*
X46949500Y-70103469D01*
X46989868Y-70306412D01*
X46989870Y-70306420D01*
X47069058Y-70497596D01*
X47184024Y-70669657D01*
X47330342Y-70815975D01*
X47330345Y-70815977D01*
X47502402Y-70930941D01*
X47693580Y-71010130D01*
X47896530Y-71050499D01*
X47896534Y-71050500D01*
X47896535Y-71050500D01*
X48103466Y-71050500D01*
X48103467Y-71050499D01*
X48306420Y-71010130D01*
X48497598Y-70930941D01*
X48669655Y-70815977D01*
X48815977Y-70669655D01*
X48930941Y-70497598D01*
X49010130Y-70306420D01*
X49050500Y-70103465D01*
X49050500Y-69896535D01*
X49010130Y-69693580D01*
X48930941Y-69502402D01*
X48815977Y-69330345D01*
X48815975Y-69330342D01*
X48669657Y-69184024D01*
X48583626Y-69126541D01*
X48497598Y-69069059D01*
X48306420Y-68989870D01*
X48306412Y-68989868D01*
X48103469Y-68949500D01*
X48103465Y-68949500D01*
X47896535Y-68949500D01*
X47896530Y-68949500D01*
X47693587Y-68989868D01*
X47693579Y-68989870D01*
X47502403Y-69069058D01*
X47330342Y-69184024D01*
X47184024Y-69330342D01*
X47069058Y-69502403D01*
X46989870Y-69693579D01*
X46989868Y-69693587D01*
X46949500Y-69896530D01*
X43580500Y-69896530D01*
X43580500Y-68687138D01*
X66435000Y-68687138D01*
X66435000Y-68980861D01*
X66467882Y-69272704D01*
X66467885Y-69272718D01*
X66533241Y-69559064D01*
X66533245Y-69559076D01*
X66630246Y-69836287D01*
X66630252Y-69836301D01*
X66757683Y-70100915D01*
X66913947Y-70349609D01*
X66938241Y-70380072D01*
X67810728Y-69507584D01*
X67844060Y-69573001D01*
X67974512Y-69752553D01*
X68131447Y-69909488D01*
X68310999Y-70039940D01*
X68376414Y-70073270D01*
X67503926Y-70945757D01*
X67503927Y-70945758D01*
X67534390Y-70970052D01*
X67783084Y-71126316D01*
X68047698Y-71253747D01*
X68047712Y-71253753D01*
X68324923Y-71350754D01*
X68324935Y-71350758D01*
X68611281Y-71416114D01*
X68611295Y-71416117D01*
X68903138Y-71448999D01*
X68903142Y-71449000D01*
X69196858Y-71449000D01*
X69196861Y-71448999D01*
X69488704Y-71416117D01*
X69488718Y-71416114D01*
X69775064Y-71350758D01*
X69775076Y-71350754D01*
X70052287Y-71253753D01*
X70052301Y-71253747D01*
X70316915Y-71126316D01*
X70565614Y-70970047D01*
X70596071Y-70945757D01*
X69723585Y-70073271D01*
X69789001Y-70039940D01*
X69968553Y-69909488D01*
X70125488Y-69752553D01*
X70255940Y-69573001D01*
X70289271Y-69507585D01*
X71161757Y-70380071D01*
X71186047Y-70349614D01*
X71342316Y-70100915D01*
X71469747Y-69836301D01*
X71469753Y-69836287D01*
X71566754Y-69559076D01*
X71566758Y-69559064D01*
X71632114Y-69272718D01*
X71632117Y-69272704D01*
X71664999Y-68980861D01*
X71665000Y-68980857D01*
X71665000Y-68687142D01*
X71664999Y-68687138D01*
X71632117Y-68395295D01*
X71632114Y-68395281D01*
X71566758Y-68108935D01*
X71566754Y-68108923D01*
X71469753Y-67831712D01*
X71469747Y-67831698D01*
X71342316Y-67567084D01*
X71186052Y-67318390D01*
X71161758Y-67287927D01*
X71161757Y-67287926D01*
X70289270Y-68160413D01*
X70255940Y-68094999D01*
X70125488Y-67915447D01*
X69968553Y-67758512D01*
X69789001Y-67628060D01*
X69723585Y-67594728D01*
X70596072Y-66722241D01*
X70565609Y-66697947D01*
X70316915Y-66541683D01*
X70052301Y-66414252D01*
X70052287Y-66414246D01*
X69775076Y-66317245D01*
X69775064Y-66317241D01*
X69488718Y-66251885D01*
X69488704Y-66251882D01*
X69196861Y-66219000D01*
X68903138Y-66219000D01*
X68611295Y-66251882D01*
X68611281Y-66251885D01*
X68324935Y-66317241D01*
X68324923Y-66317245D01*
X68047712Y-66414246D01*
X68047698Y-66414252D01*
X67783084Y-66541683D01*
X67534388Y-66697949D01*
X67534386Y-66697950D01*
X67503927Y-66722240D01*
X67503927Y-66722241D01*
X68376414Y-67594728D01*
X68310999Y-67628060D01*
X68131447Y-67758512D01*
X67974512Y-67915447D01*
X67844060Y-68094999D01*
X67810728Y-68160414D01*
X66938241Y-67287927D01*
X66938240Y-67287927D01*
X66913950Y-67318386D01*
X66913949Y-67318388D01*
X66757683Y-67567084D01*
X66630252Y-67831698D01*
X66630246Y-67831712D01*
X66533245Y-68108923D01*
X66533241Y-68108935D01*
X66467885Y-68395281D01*
X66467882Y-68395295D01*
X66435000Y-68687138D01*
X43580500Y-68687138D01*
X43580500Y-64935353D01*
X63082000Y-64935353D01*
X63082000Y-65232646D01*
X63082001Y-65232662D01*
X63120805Y-65527410D01*
X63197757Y-65814596D01*
X63311523Y-66089253D01*
X63311531Y-66089270D01*
X63460176Y-66346729D01*
X63460187Y-66346745D01*
X63641167Y-66582603D01*
X63641173Y-66582610D01*
X63851389Y-66792826D01*
X63851395Y-66792831D01*
X64087263Y-66973819D01*
X64087270Y-66973823D01*
X64344729Y-67122468D01*
X64344734Y-67122470D01*
X64344737Y-67122472D01*
X64344741Y-67122473D01*
X64344746Y-67122476D01*
X64619403Y-67236242D01*
X64619405Y-67236242D01*
X64619411Y-67236245D01*
X64906586Y-67313194D01*
X65201347Y-67352000D01*
X65201354Y-67352000D01*
X65498646Y-67352000D01*
X65498653Y-67352000D01*
X65793414Y-67313194D01*
X66080589Y-67236245D01*
X66355263Y-67122472D01*
X66612737Y-66973819D01*
X66848605Y-66792831D01*
X66848610Y-66792826D01*
X66958431Y-66683006D01*
X67058826Y-66582610D01*
X67058831Y-66582605D01*
X67239819Y-66346737D01*
X67388472Y-66089263D01*
X67502245Y-65814589D01*
X67579194Y-65527414D01*
X67618000Y-65232653D01*
X67618000Y-64935347D01*
X67579194Y-64640586D01*
X67502245Y-64353411D01*
X67388472Y-64078737D01*
X67388470Y-64078734D01*
X67388468Y-64078729D01*
X67239823Y-63821270D01*
X67239819Y-63821263D01*
X67058831Y-63585395D01*
X67058826Y-63585389D01*
X66848610Y-63375173D01*
X66848603Y-63375167D01*
X66612745Y-63194187D01*
X66612743Y-63194185D01*
X66612737Y-63194181D01*
X66612732Y-63194178D01*
X66612729Y-63194176D01*
X66355270Y-63045531D01*
X66355253Y-63045523D01*
X66080596Y-62931757D01*
X65793410Y-62854805D01*
X65498662Y-62816001D01*
X65498659Y-62816000D01*
X65498653Y-62816000D01*
X65201347Y-62816000D01*
X65201341Y-62816000D01*
X65201337Y-62816001D01*
X64906589Y-62854805D01*
X64619403Y-62931757D01*
X64344746Y-63045523D01*
X64344729Y-63045531D01*
X64087270Y-63194176D01*
X64087254Y-63194187D01*
X63851396Y-63375167D01*
X63851389Y-63375173D01*
X63641173Y-63585389D01*
X63641167Y-63585396D01*
X63460187Y-63821254D01*
X63460176Y-63821270D01*
X63311531Y-64078729D01*
X63311523Y-64078746D01*
X63197757Y-64353403D01*
X63120805Y-64640589D01*
X63082001Y-64935337D01*
X63082000Y-64935353D01*
X43580500Y-64935353D01*
X43580500Y-61306184D01*
X57759499Y-61306184D01*
X57924197Y-61390102D01*
X58148752Y-61463065D01*
X58148751Y-61463065D01*
X58381948Y-61500000D01*
X58618052Y-61500000D01*
X58851247Y-61463065D01*
X59075797Y-61390104D01*
X59240499Y-61306184D01*
X58500000Y-60565686D01*
X57759499Y-61306184D01*
X43580500Y-61306184D01*
X43580500Y-60258675D01*
X43600185Y-60191636D01*
X43616814Y-60170999D01*
X43905866Y-59881947D01*
X57000000Y-59881947D01*
X57000000Y-60118052D01*
X57036934Y-60351247D01*
X57109897Y-60575802D01*
X57193814Y-60740498D01*
X57934314Y-60000000D01*
X57868488Y-59934174D01*
X58000000Y-59934174D01*
X58000000Y-60065826D01*
X58034075Y-60192993D01*
X58099901Y-60307007D01*
X58192993Y-60400099D01*
X58307007Y-60465925D01*
X58434174Y-60500000D01*
X58565826Y-60500000D01*
X58692993Y-60465925D01*
X58807007Y-60400099D01*
X58900099Y-60307007D01*
X58965925Y-60192993D01*
X59000000Y-60065826D01*
X59000000Y-59999999D01*
X59065686Y-59999999D01*
X59065686Y-60000000D01*
X59806184Y-60740499D01*
X59890104Y-60575797D01*
X59963065Y-60351247D01*
X60000000Y-60118052D01*
X60000000Y-59881947D01*
X59963065Y-59648752D01*
X59890102Y-59424197D01*
X59806184Y-59259499D01*
X59065686Y-59999999D01*
X59000000Y-59999999D01*
X59000000Y-59934174D01*
X58965925Y-59807007D01*
X58900099Y-59692993D01*
X58807007Y-59599901D01*
X58692993Y-59534075D01*
X58565826Y-59500000D01*
X58434174Y-59500000D01*
X58307007Y-59534075D01*
X58192993Y-59599901D01*
X58099901Y-59692993D01*
X58034075Y-59807007D01*
X58000000Y-59934174D01*
X57868488Y-59934174D01*
X57193813Y-59259499D01*
X57193813Y-59259500D01*
X57109898Y-59424194D01*
X57036934Y-59648752D01*
X57000000Y-59881947D01*
X43905866Y-59881947D01*
X45093999Y-58693813D01*
X57759499Y-58693813D01*
X58500000Y-59434314D01*
X58500001Y-59434314D01*
X59032736Y-58901577D01*
X60749500Y-58901577D01*
X60749500Y-59098422D01*
X60780290Y-59292826D01*
X60841117Y-59480029D01*
X60901991Y-59599500D01*
X60930476Y-59655405D01*
X61046172Y-59814646D01*
X61185354Y-59953828D01*
X61344595Y-60069524D01*
X61427455Y-60111743D01*
X61519970Y-60158882D01*
X61519972Y-60158882D01*
X61519975Y-60158884D01*
X61557246Y-60170994D01*
X61707173Y-60219709D01*
X61901578Y-60250500D01*
X61901583Y-60250500D01*
X62098422Y-60250500D01*
X62292826Y-60219709D01*
X62480025Y-60158884D01*
X62655405Y-60069524D01*
X62814646Y-59953828D01*
X62953828Y-59814646D01*
X63069524Y-59655405D01*
X63158884Y-59480025D01*
X63219709Y-59292826D01*
X63224987Y-59259500D01*
X63250500Y-59098422D01*
X63250500Y-58901577D01*
X63219709Y-58707173D01*
X63158882Y-58519970D01*
X63069523Y-58344594D01*
X62953828Y-58185354D01*
X62814646Y-58046172D01*
X62655405Y-57930476D01*
X62480029Y-57841117D01*
X62292826Y-57780290D01*
X62098422Y-57749500D01*
X62098417Y-57749500D01*
X61901583Y-57749500D01*
X61901578Y-57749500D01*
X61707173Y-57780290D01*
X61519970Y-57841117D01*
X61344594Y-57930476D01*
X61253741Y-57996485D01*
X61185354Y-58046172D01*
X61185352Y-58046174D01*
X61185351Y-58046174D01*
X61046174Y-58185351D01*
X61046174Y-58185352D01*
X61046172Y-58185354D01*
X60996485Y-58253741D01*
X60930476Y-58344594D01*
X60841117Y-58519970D01*
X60780290Y-58707173D01*
X60749500Y-58901577D01*
X59032736Y-58901577D01*
X59125283Y-58809030D01*
X59240498Y-58693814D01*
X59075802Y-58609897D01*
X58851247Y-58536934D01*
X58851248Y-58536934D01*
X58618052Y-58500000D01*
X58381948Y-58500000D01*
X58148752Y-58536934D01*
X57924194Y-58609898D01*
X57759500Y-58693813D01*
X57759499Y-58693813D01*
X45093999Y-58693813D01*
X46074905Y-57712907D01*
X46115133Y-57686029D01*
X46122478Y-57682985D01*
X46122485Y-57682984D01*
X46248015Y-57610509D01*
X46350509Y-57508015D01*
X46422984Y-57382485D01*
X46460500Y-57242475D01*
X46460500Y-57097525D01*
X46437606Y-57012084D01*
X46439269Y-56942236D01*
X46478431Y-56884373D01*
X46488474Y-56876901D01*
X46579655Y-56815977D01*
X46725977Y-56669655D01*
X46840941Y-56497598D01*
X46920130Y-56306420D01*
X46960500Y-56103465D01*
X46960500Y-55896535D01*
X46945581Y-55821534D01*
X46945580Y-55821530D01*
X49624500Y-55821530D01*
X49624500Y-56028469D01*
X49664868Y-56231412D01*
X49664870Y-56231420D01*
X49744058Y-56422596D01*
X49859024Y-56594657D01*
X50005342Y-56740975D01*
X50005345Y-56740977D01*
X50177402Y-56855941D01*
X50368580Y-56935130D01*
X50571530Y-56975499D01*
X50571534Y-56975500D01*
X50571535Y-56975500D01*
X50778466Y-56975500D01*
X50778467Y-56975499D01*
X50981420Y-56935130D01*
X51172598Y-56855941D01*
X51344655Y-56740977D01*
X51490977Y-56594655D01*
X51605941Y-56422598D01*
X51685130Y-56231420D01*
X51725500Y-56028465D01*
X51725500Y-55821535D01*
X51725499Y-55821530D01*
X57244500Y-55821530D01*
X57244500Y-56028469D01*
X57284868Y-56231412D01*
X57284870Y-56231420D01*
X57364058Y-56422596D01*
X57479024Y-56594657D01*
X57625342Y-56740975D01*
X57625345Y-56740977D01*
X57797402Y-56855941D01*
X57988580Y-56935130D01*
X58191530Y-56975499D01*
X58191534Y-56975500D01*
X58191535Y-56975500D01*
X58398466Y-56975500D01*
X58398467Y-56975499D01*
X58601420Y-56935130D01*
X58792598Y-56855941D01*
X58964655Y-56740977D01*
X59110977Y-56594655D01*
X59225941Y-56422598D01*
X59305130Y-56231420D01*
X59345500Y-56028465D01*
X59345500Y-55821535D01*
X59305130Y-55618580D01*
X59225941Y-55427402D01*
X59110977Y-55255345D01*
X59110975Y-55255342D01*
X58964657Y-55109024D01*
X58878626Y-55051541D01*
X58792598Y-54994059D01*
X58601420Y-54914870D01*
X58601412Y-54914868D01*
X58398469Y-54874500D01*
X58398465Y-54874500D01*
X58191535Y-54874500D01*
X58191530Y-54874500D01*
X57988587Y-54914868D01*
X57988579Y-54914870D01*
X57797403Y-54994058D01*
X57625342Y-55109024D01*
X57479024Y-55255342D01*
X57364058Y-55427403D01*
X57284870Y-55618579D01*
X57284868Y-55618587D01*
X57244500Y-55821530D01*
X51725499Y-55821530D01*
X51685130Y-55618580D01*
X51605941Y-55427402D01*
X51490977Y-55255345D01*
X51490975Y-55255342D01*
X51344657Y-55109024D01*
X51258626Y-55051541D01*
X51172598Y-54994059D01*
X50981420Y-54914870D01*
X50981412Y-54914868D01*
X50778469Y-54874500D01*
X50778465Y-54874500D01*
X50571535Y-54874500D01*
X50571530Y-54874500D01*
X50368587Y-54914868D01*
X50368579Y-54914870D01*
X50177403Y-54994058D01*
X50005342Y-55109024D01*
X49859024Y-55255342D01*
X49744058Y-55427403D01*
X49664870Y-55618579D01*
X49664868Y-55618587D01*
X49624500Y-55821530D01*
X46945580Y-55821530D01*
X46920131Y-55693587D01*
X46920130Y-55693580D01*
X46840941Y-55502402D01*
X46725977Y-55330345D01*
X46725975Y-55330342D01*
X46579657Y-55184024D01*
X46467409Y-55109023D01*
X46407598Y-55069059D01*
X46216420Y-54989870D01*
X46216412Y-54989868D01*
X46013469Y-54949500D01*
X46013465Y-54949500D01*
X45806535Y-54949500D01*
X45806530Y-54949500D01*
X45603587Y-54989868D01*
X45603579Y-54989870D01*
X45412403Y-55069058D01*
X45240342Y-55184024D01*
X45094024Y-55330342D01*
X44979058Y-55502403D01*
X44899870Y-55693579D01*
X44899868Y-55693587D01*
X44859500Y-55896530D01*
X44859500Y-56103469D01*
X44899868Y-56306412D01*
X44899870Y-56306420D01*
X44979058Y-56497596D01*
X45094024Y-56669657D01*
X45240342Y-56815975D01*
X45240345Y-56815977D01*
X45304061Y-56858550D01*
X45348865Y-56912161D01*
X45357574Y-56981486D01*
X45327419Y-57044514D01*
X45322851Y-57049333D01*
X42772686Y-59599500D01*
X42679502Y-59692683D01*
X42679500Y-59692686D01*
X42613608Y-59806812D01*
X42579500Y-59934108D01*
X42579500Y-72943909D01*
X42559815Y-73010948D01*
X42511801Y-73054391D01*
X42503212Y-73058767D01*
X42412617Y-73124589D01*
X42363072Y-73160586D01*
X42363070Y-73160588D01*
X42363069Y-73160588D01*
X42240588Y-73283069D01*
X42240588Y-73283070D01*
X42240586Y-73283072D01*
X42202823Y-73335048D01*
X42138768Y-73423211D01*
X42060128Y-73577550D01*
X42059099Y-73580720D01*
X42058381Y-73581769D01*
X42058266Y-73582048D01*
X42058207Y-73582023D01*
X42019657Y-73638393D01*
X41955297Y-73665587D01*
X41886451Y-73653668D01*
X41834979Y-73606420D01*
X41823239Y-73580711D01*
X41791096Y-73481784D01*
X41734660Y-73371023D01*
X41105686Y-73999999D01*
X41040000Y-73999999D01*
X41040000Y-73934174D01*
X41005925Y-73807007D01*
X40940099Y-73692993D01*
X40847007Y-73599901D01*
X40732993Y-73534075D01*
X40605826Y-73500000D01*
X40474174Y-73500000D01*
X40347007Y-73534075D01*
X40232993Y-73599901D01*
X40139901Y-73692993D01*
X40074075Y-73807007D01*
X40040000Y-73934174D01*
X39908488Y-73934174D01*
X39345337Y-73371023D01*
X39334985Y-73391343D01*
X39287011Y-73442139D01*
X39219190Y-73458934D01*
X39153055Y-73436397D01*
X39109603Y-73381682D01*
X39100500Y-73335048D01*
X39100500Y-73125323D01*
X39100499Y-73125321D01*
X39085967Y-73052264D01*
X39085966Y-73052260D01*
X39030601Y-72969399D01*
X39003730Y-72951444D01*
X39003729Y-72951443D01*
X38947743Y-72914035D01*
X38947735Y-72914032D01*
X38874677Y-72899500D01*
X38874674Y-72899500D01*
X37125326Y-72899500D01*
X37125323Y-72899500D01*
X37052264Y-72914032D01*
X37052260Y-72914033D01*
X36969399Y-72969399D01*
X36914033Y-73052260D01*
X36914032Y-73052264D01*
X36899500Y-73125321D01*
X18800500Y-73125321D01*
X18800500Y-72805337D01*
X39911023Y-72805337D01*
X40540000Y-73434314D01*
X40540001Y-73434314D01*
X41168975Y-72805338D01*
X41058220Y-72748906D01*
X41058217Y-72748904D01*
X40856128Y-72683242D01*
X40646246Y-72650000D01*
X40433754Y-72650000D01*
X40223872Y-72683242D01*
X40223869Y-72683242D01*
X40021781Y-72748905D01*
X40021780Y-72748905D01*
X39911023Y-72805337D01*
X18800500Y-72805337D01*
X18800500Y-69896530D01*
X39329500Y-69896530D01*
X39329500Y-70103469D01*
X39369868Y-70306412D01*
X39369870Y-70306420D01*
X39449058Y-70497596D01*
X39564024Y-70669657D01*
X39710342Y-70815975D01*
X39710345Y-70815977D01*
X39882402Y-70930941D01*
X40073580Y-71010130D01*
X40276530Y-71050499D01*
X40276534Y-71050500D01*
X40276535Y-71050500D01*
X40483466Y-71050500D01*
X40483467Y-71050499D01*
X40686420Y-71010130D01*
X40877598Y-70930941D01*
X41049655Y-70815977D01*
X41195977Y-70669655D01*
X41310941Y-70497598D01*
X41390130Y-70306420D01*
X41430500Y-70103465D01*
X41430500Y-69896535D01*
X41390130Y-69693580D01*
X41310941Y-69502402D01*
X41195977Y-69330345D01*
X41195975Y-69330342D01*
X41049657Y-69184024D01*
X40963626Y-69126541D01*
X40877598Y-69069059D01*
X40686420Y-68989870D01*
X40686412Y-68989868D01*
X40483469Y-68949500D01*
X40483465Y-68949500D01*
X40276535Y-68949500D01*
X40276530Y-68949500D01*
X40073587Y-68989868D01*
X40073579Y-68989870D01*
X39882403Y-69069058D01*
X39710342Y-69184024D01*
X39564024Y-69330342D01*
X39449058Y-69502403D01*
X39369870Y-69693579D01*
X39369868Y-69693587D01*
X39329500Y-69896530D01*
X18800500Y-69896530D01*
X18800500Y-66302135D01*
X24281800Y-66302135D01*
X24281800Y-67897870D01*
X24281801Y-67897876D01*
X24288208Y-67957483D01*
X24338502Y-68092328D01*
X24338506Y-68092335D01*
X24424752Y-68207544D01*
X24424755Y-68207547D01*
X24539964Y-68293793D01*
X24539971Y-68293797D01*
X24674817Y-68344091D01*
X24674816Y-68344091D01*
X24681744Y-68344835D01*
X24734427Y-68350500D01*
X26330172Y-68350499D01*
X26389783Y-68344091D01*
X26524631Y-68293796D01*
X26639846Y-68207546D01*
X26726096Y-68092331D01*
X26776391Y-67957483D01*
X26782800Y-67897873D01*
X26782799Y-67001577D01*
X29281800Y-67001577D01*
X29281800Y-67198422D01*
X29312590Y-67392826D01*
X29373417Y-67580029D01*
X29462776Y-67755405D01*
X29578472Y-67914646D01*
X29717654Y-68053828D01*
X29876895Y-68169524D01*
X29951514Y-68207544D01*
X30052270Y-68258882D01*
X30052272Y-68258882D01*
X30052275Y-68258884D01*
X30152617Y-68291487D01*
X30239473Y-68319709D01*
X30433878Y-68350500D01*
X30433883Y-68350500D01*
X30630722Y-68350500D01*
X30825126Y-68319709D01*
X30904874Y-68293797D01*
X31012325Y-68258884D01*
X31187705Y-68169524D01*
X31346946Y-68053828D01*
X31486128Y-67914646D01*
X31601824Y-67755405D01*
X31691184Y-67580025D01*
X31752009Y-67392826D01*
X31758475Y-67352000D01*
X31782800Y-67198422D01*
X31782800Y-67001577D01*
X31752009Y-66807173D01*
X31691182Y-66619970D01*
X31601823Y-66444594D01*
X31579774Y-66414246D01*
X31486128Y-66285354D01*
X31346946Y-66146172D01*
X31187705Y-66030476D01*
X31012329Y-65941117D01*
X30825126Y-65880290D01*
X30630722Y-65849500D01*
X30630717Y-65849500D01*
X30433883Y-65849500D01*
X30433878Y-65849500D01*
X30239473Y-65880290D01*
X30052270Y-65941117D01*
X29876894Y-66030476D01*
X29795996Y-66089253D01*
X29717654Y-66146172D01*
X29717652Y-66146174D01*
X29717651Y-66146174D01*
X29578474Y-66285351D01*
X29578474Y-66285352D01*
X29578472Y-66285354D01*
X29566280Y-66302135D01*
X29462776Y-66444594D01*
X29373417Y-66619970D01*
X29312590Y-66807173D01*
X29281800Y-67001577D01*
X26782799Y-67001577D01*
X26782799Y-66302128D01*
X26776391Y-66242517D01*
X26740457Y-66146174D01*
X26726097Y-66107671D01*
X26726093Y-66107664D01*
X26639847Y-65992455D01*
X26639844Y-65992452D01*
X26524635Y-65906206D01*
X26524628Y-65906202D01*
X26389782Y-65855908D01*
X26389783Y-65855908D01*
X26330183Y-65849501D01*
X26330181Y-65849500D01*
X26330173Y-65849500D01*
X26330164Y-65849500D01*
X24734429Y-65849500D01*
X24734423Y-65849501D01*
X24674816Y-65855908D01*
X24539971Y-65906202D01*
X24539964Y-65906206D01*
X24424755Y-65992452D01*
X24424752Y-65992455D01*
X24338506Y-66107664D01*
X24338502Y-66107671D01*
X24288208Y-66242517D01*
X24283603Y-66285354D01*
X24281801Y-66302123D01*
X24281800Y-66302135D01*
X18800500Y-66302135D01*
X18800500Y-55896530D01*
X37239500Y-55896530D01*
X37239500Y-56103469D01*
X37279868Y-56306412D01*
X37279870Y-56306420D01*
X37359058Y-56497596D01*
X37474024Y-56669657D01*
X37620342Y-56815975D01*
X37620345Y-56815977D01*
X37792402Y-56930941D01*
X37983580Y-57010130D01*
X38156441Y-57044514D01*
X38186530Y-57050499D01*
X38186534Y-57050500D01*
X38186535Y-57050500D01*
X38393466Y-57050500D01*
X38393467Y-57050499D01*
X38596420Y-57010130D01*
X38787598Y-56930941D01*
X38959655Y-56815977D01*
X39105977Y-56669655D01*
X39220941Y-56497598D01*
X39300130Y-56306420D01*
X39340500Y-56103465D01*
X39340500Y-55896535D01*
X39300130Y-55693580D01*
X39220941Y-55502402D01*
X39105977Y-55330345D01*
X39105975Y-55330342D01*
X38959657Y-55184024D01*
X38847409Y-55109023D01*
X38787598Y-55069059D01*
X38596420Y-54989870D01*
X38596412Y-54989868D01*
X38393469Y-54949500D01*
X38393465Y-54949500D01*
X38186535Y-54949500D01*
X38186530Y-54949500D01*
X37983587Y-54989868D01*
X37983579Y-54989870D01*
X37792403Y-55069058D01*
X37620342Y-55184024D01*
X37474024Y-55330342D01*
X37359058Y-55502403D01*
X37279870Y-55693579D01*
X37279868Y-55693587D01*
X37239500Y-55896530D01*
X18800500Y-55896530D01*
X18800500Y-43902135D01*
X21569500Y-43902135D01*
X21569500Y-46097870D01*
X21569501Y-46097876D01*
X21575908Y-46157483D01*
X21626202Y-46292328D01*
X21626206Y-46292335D01*
X21712452Y-46407544D01*
X21712455Y-46407547D01*
X21827664Y-46493793D01*
X21827671Y-46493797D01*
X21962517Y-46544091D01*
X21962516Y-46544091D01*
X21969444Y-46544835D01*
X22022127Y-46550500D01*
X24217872Y-46550499D01*
X24277483Y-46544091D01*
X24412331Y-46493796D01*
X24527546Y-46407546D01*
X24613796Y-46292331D01*
X24664091Y-46157483D01*
X24670500Y-46097873D01*
X24670499Y-44882014D01*
X36560000Y-44882014D01*
X36560000Y-45117985D01*
X36590799Y-45351914D01*
X36651870Y-45579837D01*
X36742160Y-45797819D01*
X36742168Y-45797835D01*
X36835252Y-45959060D01*
X36835253Y-45959060D01*
X37713367Y-45080946D01*
X37734979Y-45189598D01*
X37783978Y-45307890D01*
X37855112Y-45414351D01*
X37945649Y-45504888D01*
X38052110Y-45576022D01*
X38170402Y-45625021D01*
X38279052Y-45646632D01*
X37400938Y-46524745D01*
X37562171Y-46617834D01*
X37562180Y-46617839D01*
X37780163Y-46708129D01*
X37780161Y-46708129D01*
X38008085Y-46769200D01*
X38242014Y-46799999D01*
X38242029Y-46800000D01*
X38477971Y-46800000D01*
X38477985Y-46799999D01*
X38711914Y-46769200D01*
X38939837Y-46708129D01*
X39157819Y-46617839D01*
X39157827Y-46617835D01*
X39319060Y-46524745D01*
X38440946Y-45646632D01*
X38549598Y-45625021D01*
X38667890Y-45576022D01*
X38774351Y-45504888D01*
X38864888Y-45414351D01*
X38936022Y-45307890D01*
X38985021Y-45189598D01*
X39006632Y-45080947D01*
X39884745Y-45959060D01*
X39977835Y-45797827D01*
X39977839Y-45797819D01*
X40068129Y-45579837D01*
X40129200Y-45351914D01*
X40145867Y-45225321D01*
X41684500Y-45225321D01*
X41684500Y-46774678D01*
X41699032Y-46847735D01*
X41699033Y-46847739D01*
X41699034Y-46847740D01*
X41754399Y-46930601D01*
X41814411Y-46970699D01*
X41837260Y-46985966D01*
X41837264Y-46985967D01*
X41910321Y-47000499D01*
X41910324Y-47000500D01*
X41910326Y-47000500D01*
X43009676Y-47000500D01*
X43009677Y-47000499D01*
X43082740Y-46985966D01*
X43165601Y-46930601D01*
X43220966Y-46847740D01*
X43235500Y-46774674D01*
X43235500Y-45225326D01*
X43235500Y-45225323D01*
X43235499Y-45225321D01*
X43220967Y-45152264D01*
X43220966Y-45152260D01*
X43206117Y-45130037D01*
X43165601Y-45069399D01*
X43082740Y-45014034D01*
X43082739Y-45014033D01*
X43082735Y-45014032D01*
X43009677Y-44999500D01*
X43009674Y-44999500D01*
X41910326Y-44999500D01*
X41910323Y-44999500D01*
X41837264Y-45014032D01*
X41837260Y-45014033D01*
X41754399Y-45069399D01*
X41699033Y-45152260D01*
X41699032Y-45152264D01*
X41684500Y-45225321D01*
X40145867Y-45225321D01*
X40148800Y-45203048D01*
X40159999Y-45117985D01*
X40160000Y-45117971D01*
X40160000Y-44882028D01*
X40159999Y-44882014D01*
X40129200Y-44648085D01*
X40068129Y-44420162D01*
X39977839Y-44202180D01*
X39977834Y-44202171D01*
X39884745Y-44040938D01*
X39006632Y-44919052D01*
X38985021Y-44810402D01*
X38936022Y-44692110D01*
X38864888Y-44585649D01*
X38774351Y-44495112D01*
X38667890Y-44423978D01*
X38549598Y-44374979D01*
X38440947Y-44353367D01*
X39319060Y-43475253D01*
X39319060Y-43475252D01*
X39157835Y-43382168D01*
X39157819Y-43382160D01*
X38939836Y-43291870D01*
X38939838Y-43291870D01*
X38711914Y-43230799D01*
X38477985Y-43200000D01*
X38242014Y-43200000D01*
X38008085Y-43230799D01*
X37780162Y-43291870D01*
X37562183Y-43382159D01*
X37562169Y-43382166D01*
X37400939Y-43475253D01*
X38279053Y-44353367D01*
X38170402Y-44374979D01*
X38052110Y-44423978D01*
X37945649Y-44495112D01*
X37855112Y-44585649D01*
X37783978Y-44692110D01*
X37734979Y-44810402D01*
X37713367Y-44919052D01*
X36835253Y-44040939D01*
X36742166Y-44202169D01*
X36742159Y-44202183D01*
X36651870Y-44420162D01*
X36590799Y-44648085D01*
X36560000Y-44882014D01*
X24670499Y-44882014D01*
X24670499Y-43902128D01*
X24664091Y-43842517D01*
X24631600Y-43755405D01*
X24613797Y-43707671D01*
X24613793Y-43707664D01*
X24528708Y-43594006D01*
X24528707Y-43594005D01*
X24527546Y-43592454D01*
X24527545Y-43592453D01*
X24527544Y-43592452D01*
X24412335Y-43506206D01*
X24412328Y-43506202D01*
X24277482Y-43455908D01*
X24277483Y-43455908D01*
X24217883Y-43449501D01*
X24217881Y-43449500D01*
X24217873Y-43449500D01*
X24217864Y-43449500D01*
X22022129Y-43449500D01*
X22022123Y-43449501D01*
X21962516Y-43455908D01*
X21827671Y-43506202D01*
X21827664Y-43506206D01*
X21712455Y-43592452D01*
X21712452Y-43592455D01*
X21626206Y-43707664D01*
X21626202Y-43707671D01*
X21575908Y-43842517D01*
X21569501Y-43902116D01*
X21569501Y-43902123D01*
X21569500Y-43902135D01*
X18800500Y-43902135D01*
X18800500Y-38896530D01*
X40329500Y-38896530D01*
X40329500Y-39103469D01*
X40369868Y-39306412D01*
X40369870Y-39306420D01*
X40449058Y-39497596D01*
X40564024Y-39669657D01*
X40710342Y-39815975D01*
X40710345Y-39815977D01*
X40882402Y-39930941D01*
X41073580Y-40010130D01*
X41276530Y-40050499D01*
X41276534Y-40050500D01*
X41276535Y-40050500D01*
X41483466Y-40050500D01*
X41483467Y-40050499D01*
X41686420Y-40010130D01*
X41731972Y-39991261D01*
X41801437Y-39983792D01*
X41863917Y-40015065D01*
X41867104Y-40018141D01*
X44588181Y-42739218D01*
X44621666Y-42800541D01*
X44624500Y-42826899D01*
X44624500Y-45026935D01*
X44604815Y-45093974D01*
X44569392Y-45130037D01*
X44505644Y-45172632D01*
X44397632Y-45280644D01*
X44397629Y-45280648D01*
X44312764Y-45407656D01*
X44312759Y-45407665D01*
X44254302Y-45548794D01*
X44254300Y-45548802D01*
X44224500Y-45698615D01*
X44224500Y-46301384D01*
X44254300Y-46451197D01*
X44254302Y-46451205D01*
X44312759Y-46592334D01*
X44312764Y-46592343D01*
X44397629Y-46719351D01*
X44397632Y-46719355D01*
X44505644Y-46827367D01*
X44505648Y-46827370D01*
X44632656Y-46912235D01*
X44632662Y-46912238D01*
X44632663Y-46912239D01*
X44773795Y-46970698D01*
X44923615Y-47000499D01*
X44923619Y-47000500D01*
X44923620Y-47000500D01*
X45076381Y-47000500D01*
X45076382Y-47000499D01*
X45226205Y-46970698D01*
X45367337Y-46912239D01*
X45494352Y-46827370D01*
X45602370Y-46719352D01*
X45687239Y-46592337D01*
X45745698Y-46451205D01*
X45775500Y-46301380D01*
X45775500Y-45835353D01*
X64082000Y-45835353D01*
X64082000Y-46132646D01*
X64082001Y-46132662D01*
X64117985Y-46405992D01*
X64120806Y-46427414D01*
X64138593Y-46493797D01*
X64197757Y-46714596D01*
X64311523Y-46989253D01*
X64311531Y-46989270D01*
X64460176Y-47246729D01*
X64460187Y-47246745D01*
X64641167Y-47482603D01*
X64641173Y-47482610D01*
X64851389Y-47692826D01*
X64851395Y-47692831D01*
X65087263Y-47873819D01*
X65087270Y-47873823D01*
X65344729Y-48022468D01*
X65344734Y-48022470D01*
X65344737Y-48022472D01*
X65344741Y-48022473D01*
X65344746Y-48022476D01*
X65619403Y-48136242D01*
X65619405Y-48136242D01*
X65619411Y-48136245D01*
X65906586Y-48213194D01*
X66201347Y-48252000D01*
X66201354Y-48252000D01*
X66498646Y-48252000D01*
X66498653Y-48252000D01*
X66793414Y-48213194D01*
X67080589Y-48136245D01*
X67355263Y-48022472D01*
X67612737Y-47873819D01*
X67848605Y-47692831D01*
X68058831Y-47482605D01*
X68239819Y-47246737D01*
X68388472Y-46989263D01*
X68502245Y-46714589D01*
X68579194Y-46427414D01*
X68579195Y-46427405D01*
X68579463Y-46426406D01*
X68615828Y-46366746D01*
X68678675Y-46336217D01*
X68699238Y-46334500D01*
X69761468Y-46334500D01*
X69761470Y-46334500D01*
X69850614Y-46310614D01*
X69930538Y-46264470D01*
X73863470Y-42331538D01*
X73909614Y-42251614D01*
X73911520Y-42244500D01*
X73933500Y-42162470D01*
X73933500Y-38270856D01*
X73909614Y-38181712D01*
X73863470Y-38101788D01*
X72835564Y-37073882D01*
X72802079Y-37012559D01*
X72800678Y-37004524D01*
X72800500Y-37003859D01*
X72800500Y-37003856D01*
X72776614Y-36914712D01*
X72770158Y-36903530D01*
X72730470Y-36834788D01*
X69583685Y-33688003D01*
X69550200Y-33626680D01*
X69555184Y-33556988D01*
X69597056Y-33501055D01*
X69662520Y-33476638D01*
X69690764Y-33477849D01*
X69893754Y-33510000D01*
X70106246Y-33510000D01*
X70316127Y-33476757D01*
X70316130Y-33476757D01*
X70518222Y-33411092D01*
X70628975Y-33354660D01*
X69934315Y-32660000D01*
X70065826Y-32660000D01*
X70192993Y-32625925D01*
X70307007Y-32560099D01*
X70400099Y-32467007D01*
X70465925Y-32352993D01*
X70500000Y-32225826D01*
X70500000Y-32159999D01*
X70565686Y-32159999D01*
X70565686Y-32160000D01*
X71194660Y-32788975D01*
X71251092Y-32678222D01*
X71316757Y-32476130D01*
X71316757Y-32476127D01*
X71350000Y-32266246D01*
X71350000Y-32053753D01*
X71316757Y-31843872D01*
X71316757Y-31843869D01*
X71251095Y-31641782D01*
X71194660Y-31531023D01*
X70565686Y-32159999D01*
X70500000Y-32159999D01*
X70500000Y-32094174D01*
X70465925Y-31967007D01*
X70400099Y-31852993D01*
X70307007Y-31759901D01*
X70192993Y-31694075D01*
X70065826Y-31660000D01*
X69934312Y-31660000D01*
X70628974Y-30965337D01*
X70518220Y-30908906D01*
X70518217Y-30908904D01*
X70419287Y-30876760D01*
X70361611Y-30837322D01*
X70334413Y-30772964D01*
X70346328Y-30704117D01*
X70393572Y-30652642D01*
X70419290Y-30640897D01*
X70422445Y-30639873D01*
X70576788Y-30561232D01*
X70716928Y-30459414D01*
X70839414Y-30336928D01*
X70941232Y-30196788D01*
X71019873Y-30042445D01*
X71073402Y-29877701D01*
X71100500Y-29706611D01*
X71100500Y-29533389D01*
X71073402Y-29362299D01*
X71019873Y-29197555D01*
X70941232Y-29043212D01*
X70839414Y-28903072D01*
X70716928Y-28780586D01*
X70576788Y-28678768D01*
X70422445Y-28600127D01*
X70257701Y-28546598D01*
X70257699Y-28546597D01*
X70257698Y-28546597D01*
X70114303Y-28523886D01*
X70086611Y-28519500D01*
X69913389Y-28519500D01*
X69885697Y-28523886D01*
X69742302Y-28546597D01*
X69577549Y-28600129D01*
X69445631Y-28667344D01*
X69376962Y-28680240D01*
X69312222Y-28653963D01*
X69271965Y-28596857D01*
X69268973Y-28527051D01*
X69269562Y-28524765D01*
X69269796Y-28523890D01*
X69269799Y-28523886D01*
X69300500Y-28409309D01*
X69300500Y-28290691D01*
X69269799Y-28176114D01*
X69269796Y-28176110D01*
X69269562Y-28175234D01*
X69271225Y-28105384D01*
X69310387Y-28047522D01*
X69374615Y-28020017D01*
X69443518Y-28031603D01*
X69445593Y-28032635D01*
X69577555Y-28099873D01*
X69742299Y-28153402D01*
X69913389Y-28180500D01*
X69913390Y-28180500D01*
X70086610Y-28180500D01*
X70086611Y-28180500D01*
X70257701Y-28153402D01*
X70422445Y-28099873D01*
X70576788Y-28021232D01*
X70716928Y-27919414D01*
X70839414Y-27796928D01*
X70941232Y-27656788D01*
X71019873Y-27502445D01*
X71073402Y-27337701D01*
X71100500Y-27166611D01*
X71100500Y-26993389D01*
X71073402Y-26822299D01*
X71019873Y-26657555D01*
X70941232Y-26503212D01*
X70839414Y-26363072D01*
X70716928Y-26240586D01*
X70576788Y-26138768D01*
X70422445Y-26060127D01*
X70257701Y-26006598D01*
X70257699Y-26006597D01*
X70257698Y-26006597D01*
X70126271Y-25985781D01*
X70086611Y-25979500D01*
X69913389Y-25979500D01*
X69873728Y-25985781D01*
X69742302Y-26006597D01*
X69577552Y-26060128D01*
X69423208Y-26138769D01*
X69397384Y-26157532D01*
X69331577Y-26181011D01*
X69263523Y-26165185D01*
X69214829Y-26115078D01*
X69200500Y-26057213D01*
X69200500Y-25886543D01*
X69220185Y-25819504D01*
X69236815Y-25798866D01*
X69447031Y-25588649D01*
X69508352Y-25555166D01*
X69573029Y-25558401D01*
X69577547Y-25559869D01*
X69577555Y-25559873D01*
X69742299Y-25613402D01*
X69913389Y-25640500D01*
X69913390Y-25640500D01*
X70086610Y-25640500D01*
X70086611Y-25640500D01*
X70257701Y-25613402D01*
X70422445Y-25559873D01*
X70576788Y-25481232D01*
X70716928Y-25379414D01*
X70839414Y-25256928D01*
X70941232Y-25116788D01*
X71019873Y-24962445D01*
X71073402Y-24797701D01*
X71100500Y-24626611D01*
X71100500Y-24453389D01*
X71073402Y-24282299D01*
X71019873Y-24117555D01*
X70941232Y-23963212D01*
X70839414Y-23823072D01*
X70716928Y-23700586D01*
X70576788Y-23598768D01*
X70422445Y-23520127D01*
X70257701Y-23466598D01*
X70257699Y-23466597D01*
X70257698Y-23466597D01*
X70126271Y-23445781D01*
X70086611Y-23439500D01*
X69913389Y-23439500D01*
X69873728Y-23445781D01*
X69742302Y-23466597D01*
X69577552Y-23520128D01*
X69423211Y-23598768D01*
X69343256Y-23656859D01*
X69283072Y-23700586D01*
X69283070Y-23700588D01*
X69283069Y-23700588D01*
X69160588Y-23823069D01*
X69160588Y-23823070D01*
X69160586Y-23823072D01*
X69116859Y-23883256D01*
X69058768Y-23963211D01*
X68980128Y-24117552D01*
X68926597Y-24282302D01*
X68899500Y-24453389D01*
X68899500Y-24626610D01*
X68926597Y-24797698D01*
X68981597Y-24966970D01*
X68983592Y-25036811D01*
X68951347Y-25092969D01*
X68569531Y-25474786D01*
X68569529Y-25474788D01*
X68547375Y-25513163D01*
X68547373Y-25513165D01*
X68523388Y-25554706D01*
X68523387Y-25554709D01*
X68523386Y-25554711D01*
X68523386Y-25554712D01*
X68522644Y-25557482D01*
X68499500Y-25643856D01*
X68499500Y-27775500D01*
X68479815Y-27842539D01*
X68427011Y-27888294D01*
X68375500Y-27899500D01*
X67149915Y-27899500D01*
X67082876Y-27879815D01*
X67039430Y-27831794D01*
X66969525Y-27694596D01*
X66942055Y-27656788D01*
X66853828Y-27535354D01*
X66714646Y-27396172D01*
X66555405Y-27280476D01*
X66522117Y-27263515D01*
X66380029Y-27191117D01*
X66192826Y-27130290D01*
X65998422Y-27099500D01*
X65998417Y-27099500D01*
X65801583Y-27099500D01*
X65801578Y-27099500D01*
X65607173Y-27130290D01*
X65419970Y-27191117D01*
X65244594Y-27280476D01*
X65165837Y-27337697D01*
X65085354Y-27396172D01*
X65085352Y-27396174D01*
X65085351Y-27396174D01*
X64946174Y-27535351D01*
X64946174Y-27535352D01*
X64946172Y-27535354D01*
X64896485Y-27603741D01*
X64830476Y-27694594D01*
X64741117Y-27869970D01*
X64680290Y-28057173D01*
X64649500Y-28251577D01*
X64649500Y-28448422D01*
X64680290Y-28642826D01*
X64741117Y-28830029D01*
X64789253Y-28924500D01*
X64830476Y-29005405D01*
X64946172Y-29164646D01*
X65085354Y-29303828D01*
X65244595Y-29419524D01*
X65327455Y-29461743D01*
X65419970Y-29508882D01*
X65419972Y-29508882D01*
X65419975Y-29508884D01*
X65495393Y-29533389D01*
X65607173Y-29569709D01*
X65801578Y-29600500D01*
X65801583Y-29600500D01*
X65998422Y-29600500D01*
X66192826Y-29569709D01*
X66380025Y-29508884D01*
X66555405Y-29419524D01*
X66714646Y-29303828D01*
X66853828Y-29164646D01*
X66969524Y-29005405D01*
X67021666Y-28903070D01*
X67039430Y-28868206D01*
X67087404Y-28817409D01*
X67149915Y-28800500D01*
X68375500Y-28800500D01*
X68442539Y-28820185D01*
X68488294Y-28872989D01*
X68499500Y-28924500D01*
X68499500Y-33496144D01*
X68511925Y-33542512D01*
X68523386Y-33585287D01*
X68523387Y-33585290D01*
X68569527Y-33665208D01*
X68569531Y-33665213D01*
X72064435Y-37160117D01*
X72097920Y-37221440D01*
X72099321Y-37229476D01*
X72109380Y-37267020D01*
X72109381Y-37267020D01*
X72123386Y-37319289D01*
X72123387Y-37319290D01*
X72169527Y-37399208D01*
X72169531Y-37399213D01*
X73196181Y-38425863D01*
X73229666Y-38487186D01*
X73232500Y-38513544D01*
X73232500Y-41919781D01*
X73212815Y-41986820D01*
X73196181Y-42007462D01*
X72876681Y-42326962D01*
X72815358Y-42360447D01*
X72745666Y-42355463D01*
X72689733Y-42313591D01*
X72665316Y-42248127D01*
X72665000Y-42239281D01*
X72665000Y-42087142D01*
X72664999Y-42087138D01*
X72632117Y-41795295D01*
X72632114Y-41795281D01*
X72566758Y-41508935D01*
X72566754Y-41508923D01*
X72469753Y-41231712D01*
X72469747Y-41231698D01*
X72342316Y-40967084D01*
X72186052Y-40718390D01*
X72161758Y-40687927D01*
X72161757Y-40687926D01*
X71289270Y-41560413D01*
X71255940Y-41494999D01*
X71125488Y-41315447D01*
X70968553Y-41158512D01*
X70789001Y-41028060D01*
X70723585Y-40994728D01*
X71596072Y-40122241D01*
X71565609Y-40097947D01*
X71316915Y-39941683D01*
X71052301Y-39814252D01*
X71052287Y-39814246D01*
X70775076Y-39717245D01*
X70775064Y-39717241D01*
X70488718Y-39651885D01*
X70488704Y-39651882D01*
X70196861Y-39619000D01*
X69903138Y-39619000D01*
X69611295Y-39651882D01*
X69611281Y-39651885D01*
X69324935Y-39717241D01*
X69324923Y-39717245D01*
X69047712Y-39814246D01*
X69047698Y-39814252D01*
X68783084Y-39941683D01*
X68534388Y-40097949D01*
X68534386Y-40097950D01*
X68503927Y-40122240D01*
X68503927Y-40122241D01*
X69376414Y-40994728D01*
X69310999Y-41028060D01*
X69131447Y-41158512D01*
X68974512Y-41315447D01*
X68844060Y-41494999D01*
X68810728Y-41560414D01*
X67938241Y-40687927D01*
X67938240Y-40687927D01*
X67913950Y-40718386D01*
X67913949Y-40718388D01*
X67757683Y-40967084D01*
X67630252Y-41231698D01*
X67630246Y-41231712D01*
X67533245Y-41508923D01*
X67533241Y-41508935D01*
X67467885Y-41795281D01*
X67467882Y-41795295D01*
X67435000Y-42087138D01*
X67435000Y-42380861D01*
X67467882Y-42672704D01*
X67467885Y-42672718D01*
X67533241Y-42959064D01*
X67533245Y-42959076D01*
X67630246Y-43236287D01*
X67630252Y-43236301D01*
X67757683Y-43500915D01*
X67913947Y-43749609D01*
X67938241Y-43780072D01*
X68810728Y-42907584D01*
X68844060Y-42973001D01*
X68974512Y-43152553D01*
X69131447Y-43309488D01*
X69310999Y-43439940D01*
X69376413Y-43473270D01*
X68503926Y-44345757D01*
X68503927Y-44345758D01*
X68534390Y-44370052D01*
X68783084Y-44526316D01*
X69047698Y-44653747D01*
X69047712Y-44653753D01*
X69324923Y-44750754D01*
X69324935Y-44750758D01*
X69611281Y-44816114D01*
X69611295Y-44816117D01*
X69903138Y-44848999D01*
X69903142Y-44849000D01*
X70055281Y-44849000D01*
X70122320Y-44868685D01*
X70168075Y-44921489D01*
X70178019Y-44990647D01*
X70148994Y-45054203D01*
X70142962Y-45060681D01*
X69606463Y-45597181D01*
X69545140Y-45630666D01*
X69518782Y-45633500D01*
X68699238Y-45633500D01*
X68632199Y-45613815D01*
X68586444Y-45561011D01*
X68579463Y-45541594D01*
X68579194Y-45540589D01*
X68579194Y-45540586D01*
X68502245Y-45253411D01*
X68468785Y-45172632D01*
X68388476Y-44978746D01*
X68388468Y-44978729D01*
X68239823Y-44721270D01*
X68239819Y-44721263D01*
X68058831Y-44485395D01*
X68058826Y-44485389D01*
X67848610Y-44275173D01*
X67848603Y-44275167D01*
X67612745Y-44094187D01*
X67612743Y-44094185D01*
X67612737Y-44094181D01*
X67612732Y-44094178D01*
X67612729Y-44094176D01*
X67355270Y-43945531D01*
X67355253Y-43945523D01*
X67080596Y-43831757D01*
X66793410Y-43754805D01*
X66498662Y-43716001D01*
X66498659Y-43716000D01*
X66498653Y-43716000D01*
X66201347Y-43716000D01*
X66201341Y-43716000D01*
X66201337Y-43716001D01*
X65906589Y-43754805D01*
X65619403Y-43831757D01*
X65344746Y-43945523D01*
X65344729Y-43945531D01*
X65087270Y-44094176D01*
X65087254Y-44094187D01*
X64851396Y-44275167D01*
X64851389Y-44275173D01*
X64641173Y-44485389D01*
X64641167Y-44485396D01*
X64460187Y-44721254D01*
X64460176Y-44721270D01*
X64311531Y-44978729D01*
X64311523Y-44978746D01*
X64197757Y-45253403D01*
X64120805Y-45540589D01*
X64082001Y-45835337D01*
X64082000Y-45835353D01*
X45775500Y-45835353D01*
X45775500Y-45698620D01*
X45745698Y-45548795D01*
X45687239Y-45407663D01*
X45687238Y-45407662D01*
X45687235Y-45407656D01*
X45602370Y-45280648D01*
X45602367Y-45280644D01*
X45494355Y-45172632D01*
X45430608Y-45130037D01*
X45385804Y-45076424D01*
X45375500Y-45026935D01*
X45375500Y-43001577D01*
X50749500Y-43001577D01*
X50749500Y-43198422D01*
X50780290Y-43392826D01*
X50841117Y-43580029D01*
X50906151Y-43707664D01*
X50930476Y-43755405D01*
X51046172Y-43914646D01*
X51185354Y-44053828D01*
X51344595Y-44169524D01*
X51427455Y-44211743D01*
X51519970Y-44258882D01*
X51519972Y-44258882D01*
X51519975Y-44258884D01*
X51620317Y-44291487D01*
X51707173Y-44319709D01*
X51901578Y-44350500D01*
X51901583Y-44350500D01*
X52098422Y-44350500D01*
X52292826Y-44319709D01*
X52480025Y-44258884D01*
X52655405Y-44169524D01*
X52814646Y-44053828D01*
X52953828Y-43914646D01*
X53069524Y-43755405D01*
X53158884Y-43580025D01*
X53219709Y-43392826D01*
X53221398Y-43382160D01*
X53250500Y-43198422D01*
X53250500Y-43001577D01*
X53219709Y-42807173D01*
X53158882Y-42619970D01*
X53106336Y-42516843D01*
X53069524Y-42444595D01*
X52953828Y-42285354D01*
X52814646Y-42146172D01*
X52655405Y-42030476D01*
X52480029Y-41941117D01*
X52292826Y-41880290D01*
X52098422Y-41849500D01*
X52098417Y-41849500D01*
X51901583Y-41849500D01*
X51901578Y-41849500D01*
X51707173Y-41880290D01*
X51519970Y-41941117D01*
X51344594Y-42030476D01*
X51266607Y-42087138D01*
X51185354Y-42146172D01*
X51185352Y-42146174D01*
X51185351Y-42146174D01*
X51046174Y-42285351D01*
X51046174Y-42285352D01*
X51046172Y-42285354D01*
X51002859Y-42344969D01*
X50930476Y-42444594D01*
X50841117Y-42619970D01*
X50780290Y-42807173D01*
X50749500Y-43001577D01*
X45375500Y-43001577D01*
X45375500Y-42570567D01*
X45375500Y-42570565D01*
X45349910Y-42475062D01*
X45300475Y-42389438D01*
X45230562Y-42319525D01*
X42398141Y-39487104D01*
X42364656Y-39425781D01*
X42369640Y-39356089D01*
X42371237Y-39352029D01*
X42390130Y-39306420D01*
X42430500Y-39103465D01*
X42430500Y-38896535D01*
X42430499Y-38896530D01*
X47949500Y-38896530D01*
X47949500Y-39103469D01*
X47989868Y-39306412D01*
X47989870Y-39306420D01*
X48069058Y-39497596D01*
X48184024Y-39669657D01*
X48330342Y-39815975D01*
X48330345Y-39815977D01*
X48502402Y-39930941D01*
X48693580Y-40010130D01*
X48896530Y-40050499D01*
X48896534Y-40050500D01*
X48896535Y-40050500D01*
X49103466Y-40050500D01*
X49103467Y-40050499D01*
X49306420Y-40010130D01*
X49497598Y-39930941D01*
X49669655Y-39815977D01*
X49815977Y-39669655D01*
X49930941Y-39497598D01*
X50010130Y-39306420D01*
X50050500Y-39103465D01*
X50050500Y-38896535D01*
X50010130Y-38693580D01*
X49991260Y-38648025D01*
X49983792Y-38578560D01*
X50015066Y-38516080D01*
X50018113Y-38512922D01*
X50195682Y-38335353D01*
X64082000Y-38335353D01*
X64082000Y-38632646D01*
X64082001Y-38632662D01*
X64116740Y-38896535D01*
X64120806Y-38927414D01*
X64167979Y-39103466D01*
X64197757Y-39214596D01*
X64311523Y-39489253D01*
X64311531Y-39489270D01*
X64460176Y-39746729D01*
X64460187Y-39746745D01*
X64641167Y-39982603D01*
X64641173Y-39982610D01*
X64851389Y-40192826D01*
X64851395Y-40192831D01*
X65087263Y-40373819D01*
X65087270Y-40373823D01*
X65344729Y-40522468D01*
X65344734Y-40522470D01*
X65344737Y-40522472D01*
X65344741Y-40522473D01*
X65344746Y-40522476D01*
X65619403Y-40636242D01*
X65619405Y-40636242D01*
X65619411Y-40636245D01*
X65906586Y-40713194D01*
X66201347Y-40752000D01*
X66201354Y-40752000D01*
X66498646Y-40752000D01*
X66498653Y-40752000D01*
X66793414Y-40713194D01*
X67080589Y-40636245D01*
X67355263Y-40522472D01*
X67612737Y-40373819D01*
X67848605Y-40192831D01*
X67848610Y-40192826D01*
X67958431Y-40083006D01*
X68058826Y-39982610D01*
X68058831Y-39982605D01*
X68239819Y-39746737D01*
X68388472Y-39489263D01*
X68502245Y-39214589D01*
X68579194Y-38927414D01*
X68618000Y-38632653D01*
X68618000Y-38335347D01*
X68579194Y-38040586D01*
X68502245Y-37753411D01*
X68388472Y-37478737D01*
X68388470Y-37478734D01*
X68388468Y-37478729D01*
X68239823Y-37221270D01*
X68239819Y-37221263D01*
X68058831Y-36985395D01*
X68058826Y-36985389D01*
X67848610Y-36775173D01*
X67848603Y-36775167D01*
X67612745Y-36594187D01*
X67612743Y-36594185D01*
X67612737Y-36594181D01*
X67612732Y-36594178D01*
X67612729Y-36594176D01*
X67355270Y-36445531D01*
X67355253Y-36445523D01*
X67080596Y-36331757D01*
X66962078Y-36300000D01*
X66793414Y-36254806D01*
X66793413Y-36254805D01*
X66793410Y-36254805D01*
X66498662Y-36216001D01*
X66498659Y-36216000D01*
X66498653Y-36216000D01*
X66201347Y-36216000D01*
X66201341Y-36216000D01*
X66201337Y-36216001D01*
X65906589Y-36254805D01*
X65619403Y-36331757D01*
X65344746Y-36445523D01*
X65344729Y-36445531D01*
X65087270Y-36594176D01*
X65087254Y-36594187D01*
X64851396Y-36775167D01*
X64851389Y-36775173D01*
X64641173Y-36985389D01*
X64641167Y-36985396D01*
X64460187Y-37221254D01*
X64460176Y-37221270D01*
X64311531Y-37478729D01*
X64311523Y-37478746D01*
X64197757Y-37753403D01*
X64120805Y-38040589D01*
X64082001Y-38335337D01*
X64082000Y-38335353D01*
X50195682Y-38335353D01*
X66119218Y-22411819D01*
X66180541Y-22378334D01*
X66206899Y-22375500D01*
X68775500Y-22375500D01*
X68842539Y-22395185D01*
X68888294Y-22447989D01*
X68899500Y-22499500D01*
X68899500Y-22874678D01*
X68914032Y-22947735D01*
X68914033Y-22947739D01*
X68914034Y-22947740D01*
X68969399Y-23030601D01*
X69052260Y-23085966D01*
X69052264Y-23085967D01*
X69125321Y-23100499D01*
X69125324Y-23100500D01*
X69125326Y-23100500D01*
X70874676Y-23100500D01*
X70874677Y-23100499D01*
X70947740Y-23085966D01*
X71030601Y-23030601D01*
X71085966Y-22947740D01*
X71100500Y-22874674D01*
X71100500Y-21125326D01*
X71100500Y-21125323D01*
X71100499Y-21125321D01*
X71085967Y-21052264D01*
X71085966Y-21052260D01*
X71030601Y-20969399D01*
X70947740Y-20914034D01*
X70947739Y-20914033D01*
X70947735Y-20914032D01*
X70874677Y-20899500D01*
X70874674Y-20899500D01*
X69125326Y-20899500D01*
X69125323Y-20899500D01*
X69052264Y-20914032D01*
X69052260Y-20914033D01*
X68969399Y-20969399D01*
X68914033Y-21052260D01*
X68914032Y-21052264D01*
X68899500Y-21125321D01*
X68899500Y-21500500D01*
X68879815Y-21567539D01*
X68827011Y-21613294D01*
X68775500Y-21624500D01*
X65950564Y-21624500D01*
X65855061Y-21650089D01*
X65769438Y-21699525D01*
X65769435Y-21699527D01*
X49487104Y-37981857D01*
X49425781Y-38015342D01*
X49356089Y-38010358D01*
X49351972Y-38008738D01*
X49350980Y-38008327D01*
X49306420Y-37989870D01*
X49306416Y-37989869D01*
X49306412Y-37989867D01*
X49103469Y-37949500D01*
X49103465Y-37949500D01*
X48896535Y-37949500D01*
X48896530Y-37949500D01*
X48693587Y-37989868D01*
X48693579Y-37989870D01*
X48502403Y-38069058D01*
X48330342Y-38184024D01*
X48184024Y-38330342D01*
X48069058Y-38502403D01*
X47989870Y-38693579D01*
X47989868Y-38693587D01*
X47949500Y-38896530D01*
X42430499Y-38896530D01*
X42390130Y-38693580D01*
X42310941Y-38502402D01*
X42195977Y-38330345D01*
X42195975Y-38330342D01*
X42049657Y-38184024D01*
X41926578Y-38101786D01*
X41877598Y-38069059D01*
X41747914Y-38015342D01*
X41686420Y-37989870D01*
X41686412Y-37989868D01*
X41483469Y-37949500D01*
X41483465Y-37949500D01*
X41276535Y-37949500D01*
X41276530Y-37949500D01*
X41073587Y-37989868D01*
X41073579Y-37989870D01*
X40882403Y-38069058D01*
X40710342Y-38184024D01*
X40564024Y-38330342D01*
X40449058Y-38502403D01*
X40369870Y-38693579D01*
X40369868Y-38693587D01*
X40329500Y-38896530D01*
X18800500Y-38896530D01*
X18800500Y-36157485D01*
X42028198Y-36157485D01*
X42120968Y-36204755D01*
X42315582Y-36267990D01*
X42517683Y-36300000D01*
X42722317Y-36300000D01*
X42924417Y-36267990D01*
X43119031Y-36204755D01*
X43211801Y-36157485D01*
X42620001Y-35565685D01*
X42620000Y-35565685D01*
X42028198Y-36157485D01*
X18800500Y-36157485D01*
X18800500Y-35857485D01*
X28818198Y-35857485D01*
X28910968Y-35904755D01*
X29105582Y-35967990D01*
X29307683Y-36000000D01*
X29512317Y-36000000D01*
X29714417Y-35967990D01*
X29909031Y-35904755D01*
X30001801Y-35857485D01*
X29410001Y-35265685D01*
X29410000Y-35265685D01*
X28818198Y-35857485D01*
X18800500Y-35857485D01*
X18800500Y-34596530D01*
X20739500Y-34596530D01*
X20739500Y-34803469D01*
X20779868Y-35006412D01*
X20779870Y-35006420D01*
X20859059Y-35197598D01*
X20891137Y-35245606D01*
X20974024Y-35369657D01*
X21120342Y-35515975D01*
X21120345Y-35515977D01*
X21292402Y-35630941D01*
X21483580Y-35710130D01*
X21686530Y-35750499D01*
X21686534Y-35750500D01*
X21686535Y-35750500D01*
X21893466Y-35750500D01*
X21893467Y-35750499D01*
X22096420Y-35710130D01*
X22287598Y-35630941D01*
X22459655Y-35515977D01*
X22605977Y-35369655D01*
X22720941Y-35197598D01*
X22800130Y-35006420D01*
X22840500Y-34803465D01*
X22840500Y-34597682D01*
X28110000Y-34597682D01*
X28110000Y-34802317D01*
X28142009Y-35004417D01*
X28205243Y-35199027D01*
X28205246Y-35199034D01*
X28252512Y-35291801D01*
X28844314Y-34700000D01*
X28844314Y-34699999D01*
X28791654Y-34647339D01*
X29010000Y-34647339D01*
X29010000Y-34752661D01*
X29037259Y-34854394D01*
X29089920Y-34945606D01*
X29164394Y-35020080D01*
X29255606Y-35072741D01*
X29357339Y-35100000D01*
X29462661Y-35100000D01*
X29564394Y-35072741D01*
X29655606Y-35020080D01*
X29730080Y-34945606D01*
X29782741Y-34854394D01*
X29810000Y-34752661D01*
X29810000Y-34699999D01*
X29975685Y-34699999D01*
X29975685Y-34700000D01*
X30567485Y-35291800D01*
X30614755Y-35199031D01*
X30677989Y-35004417D01*
X30695077Y-34896530D01*
X33949500Y-34896530D01*
X33949500Y-35103469D01*
X33989868Y-35306412D01*
X33989870Y-35306420D01*
X34069059Y-35497598D01*
X34114553Y-35565685D01*
X34184024Y-35669657D01*
X34330342Y-35815975D01*
X34330345Y-35815977D01*
X34502402Y-35930941D01*
X34693580Y-36010130D01*
X34896530Y-36050499D01*
X34896534Y-36050500D01*
X34896535Y-36050500D01*
X35103466Y-36050500D01*
X35103467Y-36050499D01*
X35306420Y-36010130D01*
X35331069Y-35999920D01*
X35497596Y-35930942D01*
X35497596Y-35930941D01*
X35497598Y-35930941D01*
X35669655Y-35815977D01*
X35815977Y-35669655D01*
X35930941Y-35497598D01*
X36010130Y-35306420D01*
X36050500Y-35103465D01*
X36050500Y-34897682D01*
X41320000Y-34897682D01*
X41320000Y-35102317D01*
X41352009Y-35304417D01*
X41415243Y-35499027D01*
X41415246Y-35499034D01*
X41462512Y-35591801D01*
X42054314Y-35000000D01*
X42054314Y-34999999D01*
X42001654Y-34947339D01*
X42220000Y-34947339D01*
X42220000Y-35052661D01*
X42247259Y-35154394D01*
X42299920Y-35245606D01*
X42374394Y-35320080D01*
X42465606Y-35372741D01*
X42567339Y-35400000D01*
X42672661Y-35400000D01*
X42774394Y-35372741D01*
X42865606Y-35320080D01*
X42940080Y-35245606D01*
X42992741Y-35154394D01*
X43020000Y-35052661D01*
X43020000Y-34999999D01*
X43185685Y-34999999D01*
X43185685Y-35000000D01*
X43777485Y-35591800D01*
X43824755Y-35499031D01*
X43887990Y-35304417D01*
X43920000Y-35102317D01*
X43920000Y-34897682D01*
X43887990Y-34695582D01*
X43824755Y-34500968D01*
X43777485Y-34408198D01*
X43185685Y-34999999D01*
X43020000Y-34999999D01*
X43020000Y-34947339D01*
X42992741Y-34845606D01*
X42940080Y-34754394D01*
X42865606Y-34679920D01*
X42774394Y-34627259D01*
X42672661Y-34600000D01*
X42567339Y-34600000D01*
X42465606Y-34627259D01*
X42374394Y-34679920D01*
X42299920Y-34754394D01*
X42247259Y-34845606D01*
X42220000Y-34947339D01*
X42001654Y-34947339D01*
X41462512Y-34408197D01*
X41415242Y-34500973D01*
X41415242Y-34500974D01*
X41352010Y-34695578D01*
X41352010Y-34695581D01*
X41320000Y-34897682D01*
X36050500Y-34897682D01*
X36050500Y-34896535D01*
X36010130Y-34693580D01*
X35930941Y-34502402D01*
X35815977Y-34330345D01*
X35815975Y-34330342D01*
X35669657Y-34184024D01*
X35556174Y-34108198D01*
X35497598Y-34069059D01*
X35306420Y-33989870D01*
X35306412Y-33989868D01*
X35103469Y-33949500D01*
X35103465Y-33949500D01*
X34896535Y-33949500D01*
X34896530Y-33949500D01*
X34693587Y-33989868D01*
X34693579Y-33989870D01*
X34502403Y-34069058D01*
X34330342Y-34184024D01*
X34184024Y-34330342D01*
X34069058Y-34502403D01*
X33989870Y-34693579D01*
X33989868Y-34693587D01*
X33949500Y-34896530D01*
X30695077Y-34896530D01*
X30699114Y-34871045D01*
X30699114Y-34871044D01*
X30710000Y-34802316D01*
X30710000Y-34597682D01*
X30677990Y-34395582D01*
X30614755Y-34200968D01*
X30567485Y-34108198D01*
X29975685Y-34699999D01*
X29810000Y-34699999D01*
X29810000Y-34647339D01*
X29782741Y-34545606D01*
X29730080Y-34454394D01*
X29655606Y-34379920D01*
X29564394Y-34327259D01*
X29462661Y-34300000D01*
X29357339Y-34300000D01*
X29255606Y-34327259D01*
X29164394Y-34379920D01*
X29089920Y-34454394D01*
X29037259Y-34545606D01*
X29010000Y-34647339D01*
X28791654Y-34647339D01*
X28252512Y-34108197D01*
X28205242Y-34200973D01*
X28205242Y-34200974D01*
X28142010Y-34395578D01*
X28142010Y-34395581D01*
X28110000Y-34597682D01*
X22840500Y-34597682D01*
X22840500Y-34596535D01*
X22800130Y-34393580D01*
X22720941Y-34202402D01*
X22605977Y-34030345D01*
X22605975Y-34030342D01*
X22459657Y-33884024D01*
X22326784Y-33795242D01*
X22287598Y-33769059D01*
X22096420Y-33689870D01*
X22096412Y-33689868D01*
X21893469Y-33649500D01*
X21893465Y-33649500D01*
X21686535Y-33649500D01*
X21686530Y-33649500D01*
X21483587Y-33689868D01*
X21483579Y-33689870D01*
X21292403Y-33769058D01*
X21120342Y-33884024D01*
X20974024Y-34030342D01*
X20859058Y-34202403D01*
X20779870Y-34393579D01*
X20779868Y-34393587D01*
X20739500Y-34596530D01*
X18800500Y-34596530D01*
X18800500Y-33542512D01*
X28818197Y-33542512D01*
X29410000Y-34134314D01*
X29410001Y-34134314D01*
X29701802Y-33842512D01*
X42028197Y-33842512D01*
X42620000Y-34434314D01*
X42620001Y-34434314D01*
X43211801Y-33842512D01*
X43119034Y-33795246D01*
X43119027Y-33795243D01*
X42924417Y-33732009D01*
X42722317Y-33700000D01*
X42517683Y-33700000D01*
X42315581Y-33732010D01*
X42315578Y-33732010D01*
X42120974Y-33795242D01*
X42120973Y-33795242D01*
X42028197Y-33842512D01*
X29701802Y-33842512D01*
X30001801Y-33542512D01*
X29909034Y-33495246D01*
X29909027Y-33495243D01*
X29714417Y-33432009D01*
X29512317Y-33400000D01*
X29307683Y-33400000D01*
X29105581Y-33432010D01*
X29105578Y-33432010D01*
X28910974Y-33495242D01*
X28910973Y-33495242D01*
X28818197Y-33542512D01*
X18800500Y-33542512D01*
X18800500Y-26006184D01*
X26091799Y-26006184D01*
X26256497Y-26090102D01*
X26481052Y-26163065D01*
X26481051Y-26163065D01*
X26714248Y-26200000D01*
X26950352Y-26200000D01*
X27183547Y-26163065D01*
X27408097Y-26090104D01*
X27572799Y-26006184D01*
X26832300Y-25265686D01*
X26091799Y-26006184D01*
X18800500Y-26006184D01*
X18800500Y-23902135D01*
X20581800Y-23902135D01*
X20581800Y-25497870D01*
X20581801Y-25497876D01*
X20588208Y-25557483D01*
X20638502Y-25692328D01*
X20638506Y-25692335D01*
X20724752Y-25807544D01*
X20724755Y-25807547D01*
X20839964Y-25893793D01*
X20839971Y-25893797D01*
X20974817Y-25944091D01*
X20974816Y-25944091D01*
X20981744Y-25944835D01*
X21034427Y-25950500D01*
X22630172Y-25950499D01*
X22689783Y-25944091D01*
X22824631Y-25893796D01*
X22939846Y-25807546D01*
X23026096Y-25692331D01*
X23076391Y-25557483D01*
X23082800Y-25497873D01*
X23082799Y-24581947D01*
X25332300Y-24581947D01*
X25332300Y-24818052D01*
X25369234Y-25051247D01*
X25442197Y-25275802D01*
X25526114Y-25440498D01*
X26266614Y-24700000D01*
X26200788Y-24634174D01*
X26332300Y-24634174D01*
X26332300Y-24765826D01*
X26366375Y-24892993D01*
X26432201Y-25007007D01*
X26525293Y-25100099D01*
X26639307Y-25165925D01*
X26766474Y-25200000D01*
X26898126Y-25200000D01*
X27025293Y-25165925D01*
X27139307Y-25100099D01*
X27232399Y-25007007D01*
X27298225Y-24892993D01*
X27332300Y-24765826D01*
X27332300Y-24699999D01*
X27397986Y-24699999D01*
X27397986Y-24700000D01*
X28138484Y-25440499D01*
X28222404Y-25275797D01*
X28295365Y-25051247D01*
X28332300Y-24818052D01*
X28332300Y-24801190D01*
X34276800Y-24801190D01*
X34276800Y-24998810D01*
X34278098Y-25007007D01*
X34307714Y-25193997D01*
X34368784Y-25381949D01*
X34456809Y-25554706D01*
X34458500Y-25558025D01*
X34574658Y-25717903D01*
X34714397Y-25857642D01*
X34874275Y-25973800D01*
X34938009Y-26006274D01*
X35050350Y-26063515D01*
X35050352Y-26063515D01*
X35050355Y-26063517D01*
X35151100Y-26096251D01*
X35238302Y-26124585D01*
X35327850Y-26138768D01*
X35433490Y-26155500D01*
X35433491Y-26155500D01*
X35631109Y-26155500D01*
X35631110Y-26155500D01*
X35826297Y-26124585D01*
X36014245Y-26063517D01*
X36136569Y-26001190D01*
X39376800Y-26001190D01*
X39376800Y-26198810D01*
X39381026Y-26225497D01*
X39407714Y-26393997D01*
X39468784Y-26581949D01*
X39558500Y-26758025D01*
X39674658Y-26917903D01*
X39814397Y-27057642D01*
X39974275Y-27173800D01*
X40008260Y-27191116D01*
X40150350Y-27263515D01*
X40150352Y-27263515D01*
X40150355Y-27263517D01*
X40251100Y-27296251D01*
X40338302Y-27324585D01*
X40421088Y-27337697D01*
X40533490Y-27355500D01*
X40533491Y-27355500D01*
X40731109Y-27355500D01*
X40731110Y-27355500D01*
X40926297Y-27324585D01*
X41114245Y-27263517D01*
X41290325Y-27173800D01*
X41450203Y-27057642D01*
X41589942Y-26917903D01*
X41706100Y-26758025D01*
X41795817Y-26581945D01*
X41856885Y-26393997D01*
X41887800Y-26198810D01*
X41887800Y-26001190D01*
X41856885Y-25806003D01*
X41856884Y-25805999D01*
X41856884Y-25805998D01*
X41856046Y-25803420D01*
X44030000Y-25803420D01*
X44070348Y-26006266D01*
X44070350Y-26006274D01*
X44149500Y-26197358D01*
X44149505Y-26197368D01*
X44264410Y-26369335D01*
X44264413Y-26369339D01*
X44410660Y-26515586D01*
X44410664Y-26515589D01*
X44582631Y-26630494D01*
X44582641Y-26630499D01*
X44679999Y-26670826D01*
X44680000Y-26670826D01*
X45480000Y-26670826D01*
X45577358Y-26630499D01*
X45577368Y-26630494D01*
X45749335Y-26515589D01*
X45749339Y-26515586D01*
X45895586Y-26369339D01*
X45895589Y-26369335D01*
X46010494Y-26197368D01*
X46010499Y-26197358D01*
X46089649Y-26006274D01*
X46089651Y-26006266D01*
X46129999Y-25803420D01*
X52670000Y-25803420D01*
X52710348Y-26006266D01*
X52710350Y-26006274D01*
X52789500Y-26197358D01*
X52789505Y-26197368D01*
X52904410Y-26369335D01*
X52904413Y-26369339D01*
X53050660Y-26515586D01*
X53050664Y-26515589D01*
X53222631Y-26630494D01*
X53222641Y-26630499D01*
X53319999Y-26670826D01*
X53320000Y-26670826D01*
X54120000Y-26670826D01*
X54217358Y-26630499D01*
X54217368Y-26630494D01*
X54389335Y-26515589D01*
X54389339Y-26515586D01*
X54535586Y-26369339D01*
X54535589Y-26369335D01*
X54650494Y-26197368D01*
X54650499Y-26197358D01*
X54729649Y-26006274D01*
X54729651Y-26006266D01*
X54769999Y-25803420D01*
X54770000Y-25803417D01*
X54770000Y-25800000D01*
X54120000Y-25800000D01*
X54120000Y-26670826D01*
X53320000Y-26670826D01*
X53320000Y-25800000D01*
X52670000Y-25800000D01*
X52670000Y-25803420D01*
X46129999Y-25803420D01*
X46130000Y-25803417D01*
X46130000Y-25800000D01*
X45480000Y-25800000D01*
X45480000Y-26670826D01*
X44680000Y-26670826D01*
X44680000Y-25800000D01*
X44030000Y-25800000D01*
X44030000Y-25803420D01*
X41856046Y-25803420D01*
X41850697Y-25786956D01*
X41795815Y-25618050D01*
X41742373Y-25513165D01*
X41706100Y-25441975D01*
X41589942Y-25282097D01*
X41450203Y-25142358D01*
X41379252Y-25090809D01*
X41379251Y-25090808D01*
X41337541Y-25060504D01*
X44780000Y-25060504D01*
X44780000Y-25739496D01*
X44800444Y-25815796D01*
X44839940Y-25884205D01*
X44895795Y-25940060D01*
X44964204Y-25979556D01*
X45040504Y-26000000D01*
X45119496Y-26000000D01*
X45195796Y-25979556D01*
X45264205Y-25940060D01*
X45320060Y-25884205D01*
X45359556Y-25815796D01*
X45380000Y-25739496D01*
X45380000Y-25060504D01*
X53420000Y-25060504D01*
X53420000Y-25739496D01*
X53440444Y-25815796D01*
X53479940Y-25884205D01*
X53535795Y-25940060D01*
X53604204Y-25979556D01*
X53680504Y-26000000D01*
X53759496Y-26000000D01*
X53835796Y-25979556D01*
X53904205Y-25940060D01*
X53960060Y-25884205D01*
X53999556Y-25815796D01*
X54020000Y-25739496D01*
X54020000Y-25060504D01*
X54003788Y-25000000D01*
X54120000Y-25000000D01*
X54770000Y-25000000D01*
X54770000Y-24996583D01*
X54769999Y-24996579D01*
X54729651Y-24793733D01*
X54729649Y-24793725D01*
X54650499Y-24602641D01*
X54650494Y-24602631D01*
X54535589Y-24430664D01*
X54535586Y-24430660D01*
X54389339Y-24284413D01*
X54389331Y-24284407D01*
X54217366Y-24169504D01*
X54120000Y-24129172D01*
X54120000Y-25000000D01*
X54003788Y-25000000D01*
X53999556Y-24984204D01*
X53960060Y-24915795D01*
X53904205Y-24859940D01*
X53835796Y-24820444D01*
X53759496Y-24800000D01*
X53680504Y-24800000D01*
X53604204Y-24820444D01*
X53535795Y-24859940D01*
X53479940Y-24915795D01*
X53440444Y-24984204D01*
X53420000Y-25060504D01*
X45380000Y-25060504D01*
X45363788Y-25000000D01*
X45480000Y-25000000D01*
X46130000Y-25000000D01*
X46130000Y-24996583D01*
X46129999Y-24996579D01*
X52670000Y-24996579D01*
X52670000Y-25000000D01*
X53320000Y-25000000D01*
X53320000Y-24129172D01*
X53222633Y-24169504D01*
X53050668Y-24284407D01*
X53050660Y-24284413D01*
X52904413Y-24430660D01*
X52904410Y-24430664D01*
X52789505Y-24602631D01*
X52789500Y-24602641D01*
X52710350Y-24793725D01*
X52710348Y-24793733D01*
X52670000Y-24996579D01*
X46129999Y-24996579D01*
X46089651Y-24793733D01*
X46089649Y-24793725D01*
X46010499Y-24602641D01*
X46010494Y-24602631D01*
X45895589Y-24430664D01*
X45895586Y-24430660D01*
X45749339Y-24284413D01*
X45749331Y-24284407D01*
X45577366Y-24169504D01*
X45480000Y-24129172D01*
X45480000Y-25000000D01*
X45363788Y-25000000D01*
X45359556Y-24984204D01*
X45320060Y-24915795D01*
X45264205Y-24859940D01*
X45195796Y-24820444D01*
X45119496Y-24800000D01*
X45040504Y-24800000D01*
X44964204Y-24820444D01*
X44895795Y-24859940D01*
X44839940Y-24915795D01*
X44800444Y-24984204D01*
X44780000Y-25060504D01*
X41337541Y-25060504D01*
X41290328Y-25026202D01*
X41290327Y-25026201D01*
X41290325Y-25026200D01*
X41232190Y-24996579D01*
X44030000Y-24996579D01*
X44030000Y-25000000D01*
X44680000Y-25000000D01*
X44680000Y-24129172D01*
X44582633Y-24169504D01*
X44410668Y-24284407D01*
X44410660Y-24284413D01*
X44264413Y-24430660D01*
X44264410Y-24430664D01*
X44149505Y-24602631D01*
X44149500Y-24602641D01*
X44070350Y-24793725D01*
X44070348Y-24793733D01*
X44030000Y-24996579D01*
X41232190Y-24996579D01*
X41207903Y-24984204D01*
X41114249Y-24936484D01*
X40926297Y-24875414D01*
X40757797Y-24848726D01*
X40731110Y-24844500D01*
X40533490Y-24844500D01*
X40510012Y-24848218D01*
X40338302Y-24875414D01*
X40150350Y-24936484D01*
X39974274Y-25026200D01*
X39814394Y-25142360D01*
X39674660Y-25282094D01*
X39558500Y-25441974D01*
X39468784Y-25618050D01*
X39407714Y-25806002D01*
X39376988Y-26000000D01*
X39376800Y-26001190D01*
X36136569Y-26001190D01*
X36190325Y-25973800D01*
X36350203Y-25857642D01*
X36489942Y-25717903D01*
X36606100Y-25558025D01*
X36695817Y-25381945D01*
X36756885Y-25193997D01*
X36787800Y-24998810D01*
X36787800Y-24801190D01*
X36756885Y-24606003D01*
X36755789Y-24602631D01*
X36724719Y-24507007D01*
X36695817Y-24418055D01*
X36695815Y-24418052D01*
X36695815Y-24418050D01*
X36627720Y-24284407D01*
X36606100Y-24241975D01*
X36489942Y-24082097D01*
X36350203Y-23942358D01*
X36190325Y-23826200D01*
X36184180Y-23823069D01*
X36014249Y-23736484D01*
X35826297Y-23675414D01*
X35657797Y-23648726D01*
X35631110Y-23644500D01*
X35433490Y-23644500D01*
X35410012Y-23648218D01*
X35238302Y-23675414D01*
X35050350Y-23736484D01*
X34874274Y-23826200D01*
X34714394Y-23942360D01*
X34574660Y-24082094D01*
X34458500Y-24241974D01*
X34368784Y-24418050D01*
X34307714Y-24606002D01*
X34292827Y-24699999D01*
X34276800Y-24801190D01*
X28332300Y-24801190D01*
X28332300Y-24581947D01*
X28295365Y-24348752D01*
X28222402Y-24124197D01*
X28138484Y-23959499D01*
X27397986Y-24699999D01*
X27332300Y-24699999D01*
X27332300Y-24634174D01*
X27298225Y-24507007D01*
X27232399Y-24392993D01*
X27139307Y-24299901D01*
X27025293Y-24234075D01*
X26898126Y-24200000D01*
X26766474Y-24200000D01*
X26639307Y-24234075D01*
X26525293Y-24299901D01*
X26432201Y-24392993D01*
X26366375Y-24507007D01*
X26332300Y-24634174D01*
X26200788Y-24634174D01*
X25526113Y-23959499D01*
X25526113Y-23959500D01*
X25442198Y-24124194D01*
X25369234Y-24348752D01*
X25332300Y-24581947D01*
X23082799Y-24581947D01*
X23082799Y-23902128D01*
X23076391Y-23842517D01*
X23070305Y-23826200D01*
X23026097Y-23707671D01*
X23026093Y-23707664D01*
X22939847Y-23592455D01*
X22939844Y-23592452D01*
X22864566Y-23536098D01*
X22864548Y-23536086D01*
X22824630Y-23506203D01*
X22824628Y-23506202D01*
X22689782Y-23455908D01*
X22689783Y-23455908D01*
X22630183Y-23449501D01*
X22630181Y-23449500D01*
X22630173Y-23449500D01*
X22630164Y-23449500D01*
X21034429Y-23449500D01*
X21034423Y-23449501D01*
X20974816Y-23455908D01*
X20839971Y-23506202D01*
X20839964Y-23506206D01*
X20724755Y-23592452D01*
X20724752Y-23592455D01*
X20638506Y-23707664D01*
X20638502Y-23707671D01*
X20588208Y-23842517D01*
X20581801Y-23902116D01*
X20581801Y-23902123D01*
X20581800Y-23902135D01*
X18800500Y-23902135D01*
X18800500Y-23393813D01*
X26091799Y-23393813D01*
X26832300Y-24134314D01*
X26832301Y-24134314D01*
X27572798Y-23393814D01*
X27408102Y-23309897D01*
X27183547Y-23236934D01*
X27183548Y-23236934D01*
X26950352Y-23200000D01*
X26714248Y-23200000D01*
X26481052Y-23236934D01*
X26256494Y-23309898D01*
X26091800Y-23393813D01*
X26091799Y-23393813D01*
X18800500Y-23393813D01*
X18800500Y-22003420D01*
X44030000Y-22003420D01*
X44070348Y-22206266D01*
X44070350Y-22206274D01*
X44149500Y-22397358D01*
X44149505Y-22397368D01*
X44264410Y-22569335D01*
X44264413Y-22569339D01*
X44410660Y-22715586D01*
X44410664Y-22715589D01*
X44582631Y-22830494D01*
X44582641Y-22830499D01*
X44679999Y-22870826D01*
X44680000Y-22870826D01*
X45480000Y-22870826D01*
X45577358Y-22830499D01*
X45577368Y-22830494D01*
X45749335Y-22715589D01*
X45749339Y-22715586D01*
X45895586Y-22569339D01*
X45895589Y-22569335D01*
X46010494Y-22397368D01*
X46010499Y-22397358D01*
X46089649Y-22206274D01*
X46089651Y-22206266D01*
X46129999Y-22003420D01*
X52670000Y-22003420D01*
X52710348Y-22206266D01*
X52710350Y-22206274D01*
X52789500Y-22397358D01*
X52789505Y-22397368D01*
X52904410Y-22569335D01*
X52904413Y-22569339D01*
X53050660Y-22715586D01*
X53050664Y-22715589D01*
X53222631Y-22830494D01*
X53222641Y-22830499D01*
X53319999Y-22870826D01*
X53320000Y-22870826D01*
X54120000Y-22870826D01*
X54217358Y-22830499D01*
X54217368Y-22830494D01*
X54389335Y-22715589D01*
X54389339Y-22715586D01*
X54535586Y-22569339D01*
X54535589Y-22569335D01*
X54650494Y-22397368D01*
X54650499Y-22397358D01*
X54729649Y-22206274D01*
X54729651Y-22206266D01*
X54769999Y-22003420D01*
X54770000Y-22003417D01*
X54770000Y-22000000D01*
X54120000Y-22000000D01*
X54120000Y-22870826D01*
X53320000Y-22870826D01*
X53320000Y-22000000D01*
X52670000Y-22000000D01*
X52670000Y-22003420D01*
X46129999Y-22003420D01*
X46130000Y-22003417D01*
X46130000Y-22000000D01*
X45480000Y-22000000D01*
X45480000Y-22870826D01*
X44680000Y-22870826D01*
X44680000Y-22000000D01*
X44030000Y-22000000D01*
X44030000Y-22003420D01*
X18800500Y-22003420D01*
X18800500Y-21260504D01*
X44780000Y-21260504D01*
X44780000Y-21939496D01*
X44800444Y-22015796D01*
X44839940Y-22084205D01*
X44895795Y-22140060D01*
X44964204Y-22179556D01*
X45040504Y-22200000D01*
X45119496Y-22200000D01*
X45195796Y-22179556D01*
X45264205Y-22140060D01*
X45320060Y-22084205D01*
X45359556Y-22015796D01*
X45380000Y-21939496D01*
X45380000Y-21260504D01*
X53420000Y-21260504D01*
X53420000Y-21939496D01*
X53440444Y-22015796D01*
X53479940Y-22084205D01*
X53535795Y-22140060D01*
X53604204Y-22179556D01*
X53680504Y-22200000D01*
X53759496Y-22200000D01*
X53835796Y-22179556D01*
X53904205Y-22140060D01*
X53960060Y-22084205D01*
X53999556Y-22015796D01*
X54020000Y-21939496D01*
X54020000Y-21260504D01*
X54003788Y-21200000D01*
X54120000Y-21200000D01*
X54770000Y-21200000D01*
X54770000Y-21196583D01*
X54769999Y-21196579D01*
X54729651Y-20993733D01*
X54729649Y-20993725D01*
X54650499Y-20802641D01*
X54650494Y-20802631D01*
X54535589Y-20630664D01*
X54535586Y-20630660D01*
X54389339Y-20484413D01*
X54389331Y-20484407D01*
X54217366Y-20369504D01*
X54120000Y-20329172D01*
X54120000Y-21200000D01*
X54003788Y-21200000D01*
X53999556Y-21184204D01*
X53960060Y-21115795D01*
X53904205Y-21059940D01*
X53835796Y-21020444D01*
X53759496Y-21000000D01*
X53680504Y-21000000D01*
X53604204Y-21020444D01*
X53535795Y-21059940D01*
X53479940Y-21115795D01*
X53440444Y-21184204D01*
X53420000Y-21260504D01*
X45380000Y-21260504D01*
X45363788Y-21200000D01*
X45480000Y-21200000D01*
X46130000Y-21200000D01*
X46130000Y-21196583D01*
X46129999Y-21196579D01*
X52670000Y-21196579D01*
X52670000Y-21200000D01*
X53320000Y-21200000D01*
X53320000Y-20329172D01*
X53222633Y-20369504D01*
X53050668Y-20484407D01*
X53050660Y-20484413D01*
X52904413Y-20630660D01*
X52904410Y-20630664D01*
X52789505Y-20802631D01*
X52789500Y-20802641D01*
X52710350Y-20993725D01*
X52710348Y-20993733D01*
X52670000Y-21196579D01*
X46129999Y-21196579D01*
X46089651Y-20993733D01*
X46089649Y-20993725D01*
X46010499Y-20802641D01*
X46010494Y-20802631D01*
X45895589Y-20630664D01*
X45895586Y-20630660D01*
X45749339Y-20484413D01*
X45749331Y-20484407D01*
X45577366Y-20369504D01*
X45480000Y-20329172D01*
X45480000Y-21200000D01*
X45363788Y-21200000D01*
X45359556Y-21184204D01*
X45320060Y-21115795D01*
X45264205Y-21059940D01*
X45195796Y-21020444D01*
X45119496Y-21000000D01*
X45040504Y-21000000D01*
X44964204Y-21020444D01*
X44895795Y-21059940D01*
X44839940Y-21115795D01*
X44800444Y-21184204D01*
X44780000Y-21260504D01*
X18800500Y-21260504D01*
X18800500Y-21196579D01*
X44030000Y-21196579D01*
X44030000Y-21200000D01*
X44680000Y-21200000D01*
X44680000Y-20329172D01*
X44582633Y-20369504D01*
X44410668Y-20484407D01*
X44410660Y-20484413D01*
X44264413Y-20630660D01*
X44264410Y-20630664D01*
X44149505Y-20802631D01*
X44149500Y-20802641D01*
X44070350Y-20993725D01*
X44070348Y-20993733D01*
X44030000Y-21196579D01*
X18800500Y-21196579D01*
X18800500Y-18324500D01*
X18820185Y-18257461D01*
X18872989Y-18211706D01*
X18924500Y-18200500D01*
X77575500Y-18200500D01*
X77642539Y-18220185D01*
G37*
%TD.AperFunction*%
%TD*%
M02*
