%TF.GenerationSoftware,KiCad,Pcbnew,10.0.6*%
%TF.CreationDate,2026-09-07T08:32:18-04:00*%
%TF.ProjectId,nes_power_video,6e65735f-706f-4776-9572-5f766964656f,rev?*%
%TF.SameCoordinates,Original*%
%TF.FileFunction,Copper,L1,Top*%
%TF.FilePolarity,Positive*%
%FSLAX46Y46*%
G04 Gerber Fmt 4.6, Leading zero omitted, Abs format (unit mm)*
G04 Created by KiCad (PCBNEW 10.0.6) date 2026-09-07 08:32:18*
%MOMM*%
%LPD*%
G01*
G04 APERTURE LIST*
G04 Aperture macros list*
%AMRoundRect*
0 Rectangle with rounded corners*
0 $1 Rounding radius*
0 $2 $3 $4 $5 $6 $7 $8 $9 X,Y pos of 4 corners*
0 Add a 4 corners polygon primitive as box body*
4,1,4,$2,$3,$4,$5,$6,$7,$8,$9,$2,$3,0*
0 Add four circle primitives for the rounded corners*
1,1,$1+$1,$2,$3*
1,1,$1+$1,$4,$5*
1,1,$1+$1,$6,$7*
1,1,$1+$1,$8,$9*
0 Add four rect primitives between the rounded corners*
20,1,$1+$1,$2,$3,$4,$5,0*
20,1,$1+$1,$4,$5,$6,$7,0*
20,1,$1+$1,$6,$7,$8,$9,0*
20,1,$1+$1,$8,$9,$2,$3,0*%
G04 Aperture macros list end*
%TA.AperFunction,ComponentPad*%
%ADD10R,1.700000X1.700000*%
%TD*%
%TA.AperFunction,ComponentPad*%
%ADD11C,1.700000*%
%TD*%
%TA.AperFunction,ComponentPad*%
%ADD12C,2.010000*%
%TD*%
%TA.AperFunction,SMDPad,CuDef*%
%ADD13RoundRect,0.175000X0.175000X0.425000X-0.175000X0.425000X-0.175000X-0.425000X0.175000X-0.425000X0*%
%TD*%
%TA.AperFunction,SMDPad,CuDef*%
%ADD14RoundRect,0.190000X-0.190000X-0.410000X0.190000X-0.410000X0.190000X0.410000X-0.190000X0.410000X0*%
%TD*%
%TA.AperFunction,SMDPad,CuDef*%
%ADD15RoundRect,0.200000X-0.200000X-0.400000X0.200000X-0.400000X0.200000X0.400000X-0.200000X0.400000X0*%
%TD*%
%TA.AperFunction,SMDPad,CuDef*%
%ADD16RoundRect,0.175000X-0.175000X-0.425000X0.175000X-0.425000X0.175000X0.425000X-0.175000X0.425000X0*%
%TD*%
%TA.AperFunction,SMDPad,CuDef*%
%ADD17RoundRect,0.190000X0.190000X0.410000X-0.190000X0.410000X-0.190000X-0.410000X0.190000X-0.410000X0*%
%TD*%
%TA.AperFunction,SMDPad,CuDef*%
%ADD18RoundRect,0.200000X0.200000X0.400000X-0.200000X0.400000X-0.200000X-0.400000X0.200000X-0.400000X0*%
%TD*%
%TA.AperFunction,ComponentPad*%
%ADD19O,1.100000X1.700000*%
%TD*%
%TA.AperFunction,ComponentPad*%
%ADD20C,2.000000*%
%TD*%
%TA.AperFunction,ComponentPad*%
%ADD21C,1.600000*%
%TD*%
%TA.AperFunction,SMDPad,CuDef*%
%ADD22RoundRect,0.250000X-0.337500X-0.475000X0.337500X-0.475000X0.337500X0.475000X-0.337500X0.475000X0*%
%TD*%
%TA.AperFunction,ComponentPad*%
%ADD23C,4.230000*%
%TD*%
%TA.AperFunction,ComponentPad*%
%ADD24C,4.035000*%
%TD*%
%TA.AperFunction,SMDPad,CuDef*%
%ADD25RoundRect,0.162500X-0.617500X-0.162500X0.617500X-0.162500X0.617500X0.162500X-0.617500X0.162500X0*%
%TD*%
%TA.AperFunction,ComponentPad*%
%ADD26R,1.050000X1.500000*%
%TD*%
%TA.AperFunction,ComponentPad*%
%ADD27O,1.050000X1.500000*%
%TD*%
%TA.AperFunction,ComponentPad*%
%ADD28RoundRect,0.250000X-0.750000X-0.750000X0.750000X-0.750000X0.750000X0.750000X-0.750000X0.750000X0*%
%TD*%
%TA.AperFunction,SMDPad,CuDef*%
%ADD29RoundRect,0.250000X-0.350000X-0.450000X0.350000X-0.450000X0.350000X0.450000X-0.350000X0.450000X0*%
%TD*%
%TA.AperFunction,ComponentPad*%
%ADD30RoundRect,0.250000X-1.050000X-1.050000X1.050000X-1.050000X1.050000X1.050000X-1.050000X1.050000X0*%
%TD*%
%TA.AperFunction,ComponentPad*%
%ADD31C,2.600000*%
%TD*%
%TA.AperFunction,ViaPad*%
%ADD32C,0.600000*%
%TD*%
%TA.AperFunction,Conductor*%
%ADD33C,0.800000*%
%TD*%
%TA.AperFunction,Conductor*%
%ADD34C,0.200000*%
%TD*%
%TA.AperFunction,Conductor*%
%ADD35C,0.500000*%
%TD*%
%TA.AperFunction,Conductor*%
%ADD36C,0.400000*%
%TD*%
%TA.AperFunction,Conductor*%
%ADD37C,0.600000*%
%TD*%
G04 APERTURE END LIST*
D10*
%TO.P,J4,1,Pin_1_1*%
%TO.N,Net-(J4-Pin_1)*%
X70000000Y-22000000D03*
D11*
%TO.P,J4,2,Pin_2_2*%
%TO.N,/AUDIO_OUT*%
X70000000Y-24540000D03*
%TO.P,J4,3,Pin_3_3*%
%TO.N,/5V*%
X70000000Y-27080000D03*
%TO.P,J4,4,Pin_4_4*%
%TO.N,unconnected-(J4-Pin_4-Pad4)*%
X70000000Y-29620000D03*
%TO.P,J4,5,Pin_5_5*%
%TO.N,GND*%
X70000000Y-32160000D03*
%TD*%
D12*
%TO.P,F1,1*%
%TO.N,/fused_5v*%
X35532300Y-24900000D03*
%TO.P,F1,2*%
%TO.N,/raw_5v*%
X40632300Y-26100000D03*
%TD*%
D13*
%TO.P,USB-C1,A5,CC1_A5*%
%TO.N,Net-(USB-C1-CC1)*%
X49900000Y-25480000D03*
D14*
%TO.P,USB-C1,A9,VBUS_A9*%
%TO.N,/raw_5v*%
X47880000Y-25480000D03*
D15*
%TO.P,USB-C1,A12,GND_A12*%
%TO.N,GND*%
X46650000Y-25480000D03*
D16*
%TO.P,USB-C1,B5,CC2_B5*%
%TO.N,Net-(USB-C1-CC2)*%
X48900000Y-25480000D03*
D17*
%TO.P,USB-C1,B9,VBUS_B9*%
%TO.N,/raw_5v*%
X50920000Y-25480000D03*
D18*
%TO.P,USB-C1,B12,GND_B12*%
%TO.N,GND*%
X52150000Y-25480000D03*
D19*
%TO.P,USB-C1,SH,SHIELD_SH*%
X53720000Y-25400000D03*
X53720000Y-21600000D03*
X45080000Y-25400000D03*
X45080000Y-21600000D03*
%TD*%
D20*
%TO.P,TP1,1*%
%TO.N,/VIDEO_OUT*%
X62000000Y-59000000D03*
%TD*%
D21*
%TO.P,R1,1*%
%TO.N,Net-(Q1-E)*%
X38290000Y-56000000D03*
%TO.P,R1,2*%
%TO.N,/5V*%
X45910000Y-56000000D03*
%TD*%
D22*
%TO.P,C3,1*%
%TO.N,/fused_5v*%
X21662500Y-39150000D03*
%TO.P,C3,2*%
%TO.N,GND*%
X23737500Y-39150000D03*
%TD*%
D23*
%TO.P,J3,1,SLEEVE_1*%
%TO.N,GND*%
X69050000Y-68834000D03*
D24*
%TO.P,J3,2,TIP_2*%
%TO.N,/VIDEO_OUT*%
X65350000Y-72584000D03*
%TO.P,J3,3,SHUNT_3*%
%TO.N,unconnected-(J3-SHUNT-Pad3)*%
X65350000Y-65084000D03*
%TD*%
D20*
%TO.P,TP2,1*%
%TO.N,GND*%
X58500000Y-60000000D03*
%TD*%
D21*
%TO.P,R7,1*%
%TO.N,/VIDEO_BUF*%
X48000000Y-70000000D03*
%TO.P,R7,2*%
%TO.N,/RGB_VIDEO*%
X40380000Y-70000000D03*
%TD*%
D25*
%TO.P,U1,1*%
%TO.N,/fused_5v*%
X26450000Y-38200000D03*
%TO.P,U1,2*%
%TO.N,GND*%
X26450000Y-39150000D03*
%TO.P,U1,3*%
%TO.N,/fused_5v*%
X26450000Y-40100000D03*
%TO.P,U1,4*%
%TO.N,unconnected-(U1-~{FAULT}-Pad4)*%
X29150000Y-40100000D03*
%TO.P,U1,5*%
%TO.N,Net-(U1-ILIM)*%
X29150000Y-39150000D03*
%TO.P,U1,6*%
%TO.N,/5V*%
X29150000Y-38200000D03*
%TD*%
D26*
%TO.P,Q1,1,E_1*%
%TO.N,Net-(Q1-E)*%
X42460000Y-46000000D03*
D27*
%TO.P,Q1,2,C_2*%
%TO.N,GND*%
X43730000Y-46000000D03*
%TO.P,Q1,3,B_3*%
%TO.N,Net-(Q1-B)*%
X45000000Y-46000000D03*
%TD*%
D21*
%TO.P,R5,1*%
%TO.N,/VIDEO_BUF*%
X50675000Y-55925000D03*
%TO.P,R5,2*%
%TO.N,/VIDEO_OUT*%
X58295000Y-55925000D03*
%TD*%
%TO.P,R2,1*%
%TO.N,Net-(J4-Pin_1)*%
X49000000Y-39000000D03*
%TO.P,R2,2*%
%TO.N,Net-(Q1-B)*%
X41380000Y-39000000D03*
%TD*%
D28*
%TO.P,C2,1*%
%TO.N,Net-(Q1-E)*%
X25532300Y-67100000D03*
D20*
%TO.P,C2,2*%
%TO.N,/VIDEO_BUF*%
X30532300Y-67100000D03*
%TD*%
D21*
%TO.P,R3,1*%
%TO.N,Net-(USB-C1-CC2)*%
X21790000Y-34700000D03*
%TO.P,R3,2*%
%TO.N,GND*%
X29410000Y-34700000D03*
%TD*%
D23*
%TO.P,J2,1,SLEEVE_1*%
%TO.N,GND*%
X70050000Y-42234000D03*
D24*
%TO.P,J2,2,TIP_2*%
%TO.N,/AUDIO_OUT*%
X66350000Y-45984000D03*
%TO.P,J2,3,SHUNT_3*%
%TO.N,unconnected-(J2-SHUNT-Pad3)*%
X66350000Y-38484000D03*
%TD*%
D29*
%TO.P,R6,1*%
%TO.N,Net-(U1-ILIM)*%
X32000000Y-39150000D03*
%TO.P,R6,2*%
%TO.N,GND*%
X34000000Y-39150000D03*
%TD*%
D28*
%TO.P,C1,1*%
%TO.N,/5V*%
X21832300Y-24700000D03*
D20*
%TO.P,C1,2*%
%TO.N,GND*%
X26832300Y-24700000D03*
%TD*%
%TO.P,TP3,1*%
%TO.N,/5V*%
X52000000Y-43100000D03*
%TD*%
%TO.P,TP4,1*%
%TO.N,/AUDIO_OUT*%
X65900000Y-28350000D03*
%TD*%
D30*
%TO.P,D1,1,A1_1*%
%TO.N,/5V*%
X23120000Y-45000000D03*
D31*
%TO.P,D1,2,A2_2*%
%TO.N,GND*%
X38360000Y-45000000D03*
%TD*%
D21*
%TO.P,R4,1*%
%TO.N,Net-(USB-C1-CC1)*%
X35000000Y-35000000D03*
%TO.P,R4,2*%
%TO.N,GND*%
X42620000Y-35000000D03*
%TD*%
D10*
%TO.P,J5,1*%
%TO.N,/RGB_VIDEO*%
X38000000Y-74000000D03*
D11*
%TO.P,J5,2*%
%TO.N,GND*%
X40540000Y-74000000D03*
%TO.P,J5,3*%
%TO.N,/5V*%
X43080000Y-74000000D03*
%TD*%
D32*
%TO.N,/5V*%
X45910000Y-57170000D03*
%TO.N,GND*%
X46700000Y-23900000D03*
X46700000Y-20400000D03*
X25650000Y-39150000D03*
X35300000Y-39150000D03*
X23737500Y-40900000D03*
X52400000Y-20900000D03*
X52300000Y-24000000D03*
%TD*%
%TO.N,/5V*%
D33*
X25020000Y-43100000D02*
X53980000Y-43100000D01*
X23120000Y-45000000D02*
X25020000Y-43100000D01*
X23120000Y-45000000D02*
X20390000Y-45000000D01*
X47500000Y-44600000D02*
X49000000Y-43100000D01*
X36500000Y-37300000D02*
X36500000Y-43100000D01*
X29150000Y-37300000D02*
X36500000Y-37300000D01*
X53980000Y-43100000D02*
X70000000Y-27080000D01*
D34*
X19690000Y-44300000D02*
X19690000Y-44454700D01*
X21832300Y-24700000D02*
X19690000Y-26842300D01*
X19690000Y-26842300D02*
X19690000Y-44300000D01*
D33*
X45910000Y-56000000D02*
X47500000Y-54410000D01*
X47500000Y-54410000D02*
X47500000Y-44600000D01*
D35*
X45910000Y-57170000D02*
X45910000Y-56000000D01*
D33*
X20390000Y-45000000D02*
X19690000Y-44300000D01*
X29150000Y-38200000D02*
X29150000Y-37300000D01*
D34*
X19690000Y-26842300D02*
X19690000Y-44454700D01*
%TO.N,GND*%
D33*
X52600000Y-21100000D02*
X52400000Y-20900000D01*
X52150000Y-24150000D02*
X52300000Y-24000000D01*
X46600000Y-24000000D02*
X46700000Y-23900000D01*
X45300000Y-21100000D02*
X46000000Y-21100000D01*
X52150000Y-25480000D02*
X52150000Y-24150000D01*
D36*
X23737500Y-39150000D02*
X23737500Y-40900000D01*
D33*
X53940000Y-21100000D02*
X52600000Y-21100000D01*
X53200000Y-24900000D02*
X52300000Y-24000000D01*
X46000000Y-21100000D02*
X46700000Y-20400000D01*
X46650000Y-24050000D02*
X46600000Y-24000000D01*
X45700000Y-24900000D02*
X46600000Y-24000000D01*
D36*
X34000000Y-39150000D02*
X35300000Y-39150000D01*
X26450000Y-39150000D02*
X25650000Y-39150000D01*
D33*
X45300000Y-24900000D02*
X45700000Y-24900000D01*
X53940000Y-24900000D02*
X53200000Y-24900000D01*
X45700000Y-24900000D02*
X46700000Y-23900000D01*
X46650000Y-25480000D02*
X46650000Y-24050000D01*
%TO.N,/fused_5v*%
D36*
X24900000Y-40100000D02*
X24900000Y-37500000D01*
X26450000Y-40100000D02*
X24900000Y-40100000D01*
D37*
X26450000Y-37500000D02*
X26450000Y-38200000D01*
X20390000Y-37500000D02*
X26450000Y-37500000D01*
D33*
X20390000Y-34120100D02*
X20390000Y-38100000D01*
D36*
X21662500Y-39150000D02*
X21662500Y-37500000D01*
D33*
X29610100Y-24900000D02*
X20390000Y-34120100D01*
X35532300Y-24900000D02*
X29610100Y-24900000D01*
D37*
X20390000Y-38100000D02*
X20390000Y-37500000D01*
%TO.N,/raw_5v*%
D33*
X47880000Y-24729600D02*
X48378700Y-24230900D01*
D34*
X47880000Y-25564900D02*
X47880000Y-25480000D01*
D33*
X48378700Y-24230900D02*
X50379800Y-24230900D01*
X47880000Y-25480000D02*
X47880000Y-24729600D01*
D34*
X40632300Y-26100000D02*
X41111600Y-26579300D01*
X41111600Y-26579300D02*
X46865600Y-26579300D01*
X46865600Y-26579300D02*
X47880000Y-25564900D01*
D33*
X50379800Y-24230900D02*
X50920000Y-24771100D01*
D34*
X50920000Y-24771100D02*
X50920000Y-25480000D01*
%TO.N,Net-(USB-C1-CC1)*%
X49900000Y-26080000D02*
X49900000Y-25480000D01*
X40980000Y-35000000D02*
X49900000Y-26080000D01*
X35000000Y-35000000D02*
X40980000Y-35000000D01*
%TO.N,Net-(USB-C1-CC2)*%
X47053000Y-27654600D02*
X48900000Y-25807600D01*
X21790000Y-34700000D02*
X28835400Y-27654600D01*
X28835400Y-27654600D02*
X47053000Y-27654600D01*
X48900000Y-25807600D02*
X48900000Y-25480000D01*
%TO.N,/VIDEO_OUT*%
D36*
X62000000Y-59000000D02*
X62000000Y-55925000D01*
D34*
X63625000Y-55925000D02*
X58295000Y-55925000D01*
X72700000Y-65000000D02*
X72700000Y-68599326D01*
X68715326Y-72584000D02*
X65350000Y-72584000D01*
X72700000Y-68599326D02*
X68715326Y-72584000D01*
X72700000Y-65000000D02*
X63625000Y-55925000D01*
%TO.N,Net-(Q1-E)*%
D33*
X32335300Y-57100000D02*
X38290000Y-56000000D01*
X42460000Y-51830000D02*
X38290000Y-56000000D01*
X42460000Y-46000000D02*
X42460000Y-51830000D01*
D34*
X32267650Y-57032350D02*
X32335300Y-57100000D01*
D33*
X25532300Y-63767700D02*
X32267650Y-57032350D01*
X25532300Y-67100000D02*
X25532300Y-63767700D01*
%TO.N,/VIDEO_BUF*%
D36*
X48000000Y-70000000D02*
X42300000Y-64300000D01*
D34*
X30532300Y-67100000D02*
X39500000Y-67100000D01*
X39500000Y-67100000D02*
X50675000Y-55925000D01*
%TO.N,/RGB_VIDEO*%
D36*
X38000000Y-72380000D02*
X38000000Y-74000000D01*
X40380000Y-70000000D02*
X38000000Y-72380000D01*
%TO.N,Net-(U1-ILIM)*%
X29150000Y-39150000D02*
X32000000Y-39150000D01*
%TD*%
M02*
